<svg width="450" height="375" viewBox="0 0 450 375" fill="none" xmlns="http://www.w3.org/2000/svg">
<path fill-rule="evenodd" clip-rule="evenodd" d="M0 284.772L155.699 374.375L449.997 204.014L293.851 114.493L0 284.772Z" fill="#F7E1BA"/>
<path fill-rule="evenodd" clip-rule="evenodd" d="M294.234 0.0828857V114.535L449.993 204.013V90.1032L294.234 0.0828857Z" fill="#EAEAEA"/>
<path fill-rule="evenodd" clip-rule="evenodd" d="M319.44 14.5803V129.033L424.176 189.129V75.2193L319.44 14.5803Z" fill="#FEB415"/>
<path fill-rule="evenodd" clip-rule="evenodd" d="M449.995 90.1064V204.016L294.186 114.698L0 284.781V169.705L294.186 0L449.995 90.1064Z" fill="#F6F6F6"/>
<mask id="mask0" mask-type="alpha" maskUnits="userSpaceOnUse" x="0" y="0" width="450" height="285">
<path fill-rule="evenodd" clip-rule="evenodd" d="M449.995 90.1064V204.016L294.186 114.698L0 284.781V169.705L294.186 0L449.995 90.1064Z" fill="white"/>
</mask>
<g mask="url(#mask0)">
<path d="M19.2194 156.693V276.906L54.0132 261.723V130.56L19.2194 156.693Z" fill="#FEB415"/>
<path d="M145.803 83.7911V204.005L180.596 188.821V57.6583L145.803 83.7911Z" fill="#FEB415"/>
<path d="M269.072 14.8662V135.08L294.588 119.896V-11.2666L269.072 14.8662Z" fill="#FEB415"/>
<path d="M294.256 -5.09546L294.256 115.478L319.772 120.991V0.579873L294.256 -5.09546Z" fill="#FAB218"/>
<path d="M415.538 67.5994L415.538 203.858L441.053 210.088V74.013L415.538 67.5994Z" fill="#FAB218"/>
</g>
<path d="M330.044 51.0309L330.044 91.4735L405.596 135.688V95.3L330.044 51.0309Z" fill="#A1CDFF" stroke="white" stroke-width="5"/>
<path d="M130.897 203.074V194.74L141.24 188.945V197.28L130.897 203.074Z" fill="white" stroke="#444444" stroke-width="2"/>
<path fill-rule="evenodd" clip-rule="evenodd" d="M134.157 197.255C134.419 197.255 135.128 196.891 135.128 196.635C135.128 196.379 134.916 196.171 134.655 196.171C134.393 196.171 133.684 196.535 133.684 196.791C133.684 197.048 133.896 197.255 134.157 197.255Z" fill="#D8D8D8" stroke="#272727"/>
<path fill-rule="evenodd" clip-rule="evenodd" d="M137.795 195.251C138.056 195.251 138.766 194.887 138.766 194.631C138.766 194.374 138.554 194.167 138.292 194.167C138.031 194.167 137.322 194.531 137.322 194.787C137.322 195.043 137.533 195.251 137.795 195.251Z" fill="#D8D8D8" stroke="#272727"/>
<path d="M240.249 142.102V133.768L250.592 127.973V136.308L240.249 142.102Z" fill="white" stroke="#444444" stroke-width="2"/>
<path fill-rule="evenodd" clip-rule="evenodd" d="M243.509 136.283C243.771 136.283 244.48 135.919 244.48 135.663C244.48 135.407 244.268 135.199 244.007 135.199C243.745 135.199 243.036 135.563 243.036 135.819C243.036 136.076 243.248 136.283 243.509 136.283Z" fill="#D8D8D8" stroke="#272727"/>
<path fill-rule="evenodd" clip-rule="evenodd" d="M247.147 134.279C247.408 134.279 248.118 133.915 248.118 133.659C248.118 133.402 247.906 133.195 247.644 133.195C247.383 133.195 246.674 133.559 246.674 133.815C246.674 134.071 246.886 134.279 247.147 134.279Z" fill="#D8D8D8" stroke="#272727"/>
<path d="M36.7879 256.756V248.421L47.1309 242.627V250.962L36.7879 256.756Z" fill="white" stroke="#444444" stroke-width="2"/>
<path fill-rule="evenodd" clip-rule="evenodd" d="M40.0484 250.937C40.3098 250.937 41.0192 250.573 41.0192 250.317C41.0192 250.06 40.8073 249.853 40.5458 249.853C40.2844 249.853 39.575 250.217 39.575 250.473C39.575 250.73 39.787 250.937 40.0484 250.937Z" fill="#D8D8D8" stroke="#272727"/>
<path fill-rule="evenodd" clip-rule="evenodd" d="M43.6859 248.933C43.9474 248.933 44.6567 248.569 44.6567 248.313C44.6567 248.056 44.4448 247.849 44.1833 247.849C43.9219 247.849 43.2125 248.213 43.2125 248.469C43.2125 248.725 43.4245 248.933 43.6859 248.933Z" fill="#D8D8D8" stroke="#272727"/>
<path d="M199.996 124.174V83.5257L258.619 48.7907V89.439L199.996 124.174Z" fill="#A1CDFF" stroke="white" stroke-width="5"/>
<path d="M68.7739 200.399V159.751L127.397 125.016V165.664L68.7739 200.399Z" fill="#A1CDFF" stroke="white" stroke-width="5"/>
<path fill-rule="evenodd" clip-rule="evenodd" d="M293.62 127.505L351.18 159.871L322.587 176.551L265.8 143.687L293.62 127.505Z" fill="#D5C5A3"/>
<path fill-rule="evenodd" clip-rule="evenodd" d="M277.078 120.465L279.194 121.817L277.078 123.095L274.959 121.78L277.078 120.465Z" fill="#B4B6B6"/>
<path fill-rule="evenodd" clip-rule="evenodd" d="M274.959 121.781V142.9L277.075 144.207V123.094L274.959 121.781Z" fill="#9A9A9B"/>
<path fill-rule="evenodd" clip-rule="evenodd" d="M277.072 123.086V144.207L279.189 142.936V121.821L277.072 123.086Z" fill="#7A7B7B"/>
<path fill-rule="evenodd" clip-rule="evenodd" d="M322.166 146.51L324.282 147.862L322.166 149.141L320.047 147.826L322.166 146.51Z" fill="#B4B6B6"/>
<path fill-rule="evenodd" clip-rule="evenodd" d="M320.047 147.826V168.945L322.164 170.252V149.139L320.047 147.826Z" fill="#9A9A9B"/>
<path fill-rule="evenodd" clip-rule="evenodd" d="M322.161 149.131V170.253L324.277 168.981V147.867L322.161 149.131Z" fill="#7A7B7B"/>
<path fill-rule="evenodd" clip-rule="evenodd" d="M338.37 137.359L340.485 138.711L338.37 139.989L336.251 138.674L338.37 137.359Z" fill="#B4B6B6"/>
<path fill-rule="evenodd" clip-rule="evenodd" d="M336.251 138.675V159.794L338.367 161.101V139.988L336.251 138.675Z" fill="#9A9A9B"/>
<path fill-rule="evenodd" clip-rule="evenodd" d="M338.364 139.98V161.102L340.481 159.83V138.716L338.364 139.98Z" fill="#7A7B7B"/>
<path fill-rule="evenodd" clip-rule="evenodd" d="M292.915 106.387L350.476 138.754L321.882 155.433L265.096 122.569L292.915 106.387Z" fill="#F6F6F6"/>
<path fill-rule="evenodd" clip-rule="evenodd" d="M292.915 103.571L350.476 135.938L321.882 152.618L265.096 119.753L292.915 103.571Z" fill="#CC9181"/>
<path fill-rule="evenodd" clip-rule="evenodd" d="M265.096 119.761L321.873 152.601V155.431L265.096 122.567L265.096 119.761Z" fill="#350100"/>
<path fill-rule="evenodd" clip-rule="evenodd" d="M321.873 152.597L350.479 135.948V138.761L321.873 155.437V152.597Z" fill="#99614A"/>
<path fill-rule="evenodd" clip-rule="evenodd" d="M279.368 146.465L318.612 168.6L290.556 184.242L251.841 161.767L279.368 146.465Z" fill="#D5C5A3"/>
<path fill-rule="evenodd" clip-rule="evenodd" d="M298.16 154.418L299.412 155.218L298.16 155.974L296.907 155.196L298.16 154.418Z" fill="#B4B6B6"/>
<path fill-rule="evenodd" clip-rule="evenodd" d="M296.907 155.197V167.687L298.159 168.46V155.973L296.907 155.197Z" fill="#9A9A9B"/>
<path fill-rule="evenodd" clip-rule="evenodd" d="M298.157 155.968V168.461L299.409 167.709V155.22L298.157 155.968Z" fill="#7A7B7B"/>
<path fill-rule="evenodd" clip-rule="evenodd" d="M286.231 159.72L287.483 160.52L286.231 161.276L284.978 160.498L286.231 159.72Z" fill="#B4B6B6"/>
<path fill-rule="evenodd" clip-rule="evenodd" d="M284.978 160.499V172.989L286.23 173.762V161.275L284.978 160.499Z" fill="#9A9A9B"/>
<path fill-rule="evenodd" clip-rule="evenodd" d="M286.228 161.27V173.763L287.48 173.011V160.522L286.228 161.27Z" fill="#7A7B7B"/>
<path fill-rule="evenodd" clip-rule="evenodd" d="M270.988 151.767L272.24 152.567L270.988 153.323L269.735 152.545L270.988 151.767Z" fill="#B4B6B6"/>
<path fill-rule="evenodd" clip-rule="evenodd" d="M269.735 152.546V165.036L270.987 165.81V153.322L269.735 152.546Z" fill="#9A9A9B"/>
<path fill-rule="evenodd" clip-rule="evenodd" d="M270.985 153.317V165.81L272.237 165.058V152.569L270.985 153.317Z" fill="#7A7B7B"/>
<path fill-rule="evenodd" clip-rule="evenodd" d="M283.541 143.152L300.884 152.319L285.641 161.082L269.072 151.418L283.541 143.152Z" fill="#E0E0E0"/>
<path fill-rule="evenodd" clip-rule="evenodd" d="M270.398 128.571L286.635 138.181L285.641 138.283L269.072 128.619L270.398 128.571Z" fill="#E0E0E0"/>
<path fill-rule="evenodd" clip-rule="evenodd" d="M269.072 128.572L285.641 138.229V163.876L269.072 154.195L269.072 128.572Z" fill="#303030"/>
<path fill-rule="evenodd" clip-rule="evenodd" d="M285.641 161.017L300.884 152.252V155.146L285.641 163.87V161.017Z" fill="#646464"/>
<path fill-rule="evenodd" clip-rule="evenodd" d="M285.641 138.181H286.635V163.365L285.641 163.87V138.181Z" fill="#646464"/>
<path fill-rule="evenodd" clip-rule="evenodd" d="M298.304 126.48L310.34 133.232L304.361 136.712L292.486 129.856L298.304 126.48Z" fill="white"/>
<path fill-rule="evenodd" clip-rule="evenodd" d="M310.88 121.754L320.334 127.172L314.487 130.952L305.048 125.566L310.88 121.754Z" fill="#696969"/>
<path fill-rule="evenodd" clip-rule="evenodd" d="M310.976 122.174V125.325L313.838 127.078V123.817L310.976 122.174Z" fill="#8D8E90"/>
<path fill-rule="evenodd" clip-rule="evenodd" d="M313.83 127.076L317.594 124.529V121.046L313.83 123.422V127.076Z" fill="#ABAEB1"/>
<path fill-rule="evenodd" clip-rule="evenodd" d="M303.869 99.7974L327.342 113.298V130.025L303.869 116.628L303.869 99.7974Z" fill="#ABAEB1"/>
<path fill-rule="evenodd" clip-rule="evenodd" d="M302.447 100.506L325.919 114.007V130.733L302.447 117.336L302.447 100.506Z" fill="black"/>
<path fill-rule="evenodd" clip-rule="evenodd" d="M303.163 101.946L325.204 114.587V128.327L303.163 115.781L303.163 101.946Z" fill="#3367A3"/>
<path fill-rule="evenodd" clip-rule="evenodd" d="M302.449 100.51L303.814 99.7272L327.346 113.301L325.92 114.006L302.449 100.51Z" fill="#DDDFDF"/>
<path fill-rule="evenodd" clip-rule="evenodd" d="M325.915 130.741L327.331 130.021V113.309L325.915 113.999V130.741Z" fill="#ABAEB1"/>
<path fill-rule="evenodd" clip-rule="evenodd" d="M295.212 94.109L299.028 96.354L289.949 101.763L286.012 99.4902L295.212 94.109Z" fill="#DDDFDF"/>
<path fill-rule="evenodd" clip-rule="evenodd" d="M286.019 99.49L286.019 113.635L289.949 115.902V101.757L286.019 99.49Z" fill="#F1F1F1"/>
<path fill-rule="evenodd" clip-rule="evenodd" d="M286.51 101.579V103.188L289 104.816V103.208L286.51 101.579Z" fill="#6F6F6F"/>
<path fill-rule="evenodd" clip-rule="evenodd" d="M286.51 104.567V106.176L289 107.804V106.196L286.51 104.567Z" fill="#6F6F6F"/>
<path fill-rule="evenodd" clip-rule="evenodd" d="M286.51 107.555V109.164L289 110.792V109.184L286.51 107.555Z" fill="#6F6F6F"/>
<path fill-rule="evenodd" clip-rule="evenodd" d="M286.51 110.543V112.152L289 113.781V112.172L286.51 110.543Z" fill="#6F6F6F"/>
<path fill-rule="evenodd" clip-rule="evenodd" d="M289.927 101.749L299.026 96.3625V110.488L289.927 115.914V101.749Z" fill="#CDCDCD"/>
<path d="M311.909 139.428V139.926L326.102 148.143L335.814 142.416V141.918L326.102 147.645L311.909 139.428Z" fill="#ABAEB1"/>
<path d="M335.814 142.416L326.102 148.143L311.909 139.926L321.62 134.448L335.814 142.416Z" fill="#8D8E90"/>
<path d="M335.814 141.918L326.102 147.645L311.909 139.428L321.62 134.199L335.814 141.918Z" fill="#B4B6B6"/>
<path d="M324.078 142.987L321.562 144.47L317.885 142.341L320.401 140.922L324.078 142.987Z" fill="#DCDCDC"/>
<path d="M333.822 142.416L329.282 145.041L316.084 137.755L320.873 135.195L333.822 142.416Z" fill="#DCDCDC"/>
<path fill-rule="evenodd" clip-rule="evenodd" d="M321.727 124.116L335.81 132.216V142.252L321.727 134.214L321.727 124.116Z" fill="#ABAEB1"/>
<path fill-rule="evenodd" clip-rule="evenodd" d="M320.873 124.541L334.956 132.641V142.677L320.873 134.639L320.873 124.541Z" fill="black"/>
<path fill-rule="evenodd" clip-rule="evenodd" d="M321.303 125.405L334.528 132.99V141.234L321.303 133.706L321.303 125.405Z" fill="#3367A3"/>
<path fill-rule="evenodd" clip-rule="evenodd" d="M320.875 124.544L321.694 124.074L335.813 132.218L334.957 132.641L320.875 124.544Z" fill="#DDDFDF"/>
<path fill-rule="evenodd" clip-rule="evenodd" d="M334.954 142.682L335.804 142.25V132.223L334.954 132.637V142.682Z" fill="#ABAEB1"/>
<path fill-rule="evenodd" clip-rule="evenodd" d="M311.966 135.973C311.997 135.954 312.037 135.953 312.069 135.97L313.712 136.855C313.895 136.953 313.902 137.213 313.724 137.321L311.494 138.684C311.172 138.881 310.768 138.887 310.44 138.699V138.699C309.757 138.308 309.744 137.327 310.416 136.918L311.966 135.973Z" fill="white"/>
<path fill-rule="evenodd" clip-rule="evenodd" d="M194.209 187.814L251.77 220.181L223.176 236.86L166.389 203.996L194.209 187.814Z" fill="#D5C5A3"/>
<path fill-rule="evenodd" clip-rule="evenodd" d="M177.667 180.775L179.783 182.127L177.667 183.405L175.548 182.09L177.667 180.775Z" fill="#B4B6B6"/>
<path fill-rule="evenodd" clip-rule="evenodd" d="M175.548 182.091V203.209L177.665 204.517V183.404L175.548 182.091Z" fill="#9A9A9B"/>
<path fill-rule="evenodd" clip-rule="evenodd" d="M177.661 183.395V204.517L179.778 203.245V182.131L177.661 183.395Z" fill="#7A7B7B"/>
<path fill-rule="evenodd" clip-rule="evenodd" d="M222.755 206.82L224.871 208.172L222.755 209.45L220.636 208.135L222.755 206.82Z" fill="#B4B6B6"/>
<path fill-rule="evenodd" clip-rule="evenodd" d="M220.636 208.136V229.254L222.753 230.562V209.449L220.636 208.136Z" fill="#9A9A9B"/>
<path fill-rule="evenodd" clip-rule="evenodd" d="M222.75 209.44V230.562L224.866 229.29V208.176L222.75 209.44Z" fill="#7A7B7B"/>
<path fill-rule="evenodd" clip-rule="evenodd" d="M238.959 197.669L241.075 199.021L238.959 200.299L236.84 198.984L238.959 197.669Z" fill="#B4B6B6"/>
<path fill-rule="evenodd" clip-rule="evenodd" d="M236.84 198.985V220.103L238.956 221.411V200.298L236.84 198.985Z" fill="#9A9A9B"/>
<path fill-rule="evenodd" clip-rule="evenodd" d="M238.953 200.289V221.411L241.07 220.139V199.025L238.953 200.289Z" fill="#7A7B7B"/>
<path fill-rule="evenodd" clip-rule="evenodd" d="M193.504 166.696L251.065 199.063L222.471 215.742L165.685 182.878L193.504 166.696Z" fill="#F6F6F6"/>
<path fill-rule="evenodd" clip-rule="evenodd" d="M193.504 163.88L251.065 196.247L222.471 212.927L165.685 180.063L193.504 163.88Z" fill="#CC9181"/>
<path fill-rule="evenodd" clip-rule="evenodd" d="M165.685 180.071L222.462 212.91V215.74L165.685 182.876L165.685 180.071Z" fill="#350100"/>
<path fill-rule="evenodd" clip-rule="evenodd" d="M222.462 212.906L251.068 196.257V199.071L222.462 215.747V212.906Z" fill="#99614A"/>
<path fill-rule="evenodd" clip-rule="evenodd" d="M179.957 206.775L219.201 228.909L191.145 244.551L152.43 222.076L179.957 206.775Z" fill="#D5C5A3"/>
<path fill-rule="evenodd" clip-rule="evenodd" d="M198.75 214.728L200.001 215.527L198.75 216.283L197.496 215.505L198.75 214.728Z" fill="#B4B6B6"/>
<path fill-rule="evenodd" clip-rule="evenodd" d="M197.496 215.506V227.997L198.748 228.77V216.282L197.496 215.506Z" fill="#9A9A9B"/>
<path fill-rule="evenodd" clip-rule="evenodd" d="M198.746 216.277V228.77L199.998 228.018V215.53L198.746 216.277Z" fill="#7A7B7B"/>
<path fill-rule="evenodd" clip-rule="evenodd" d="M186.82 220.029L188.072 220.829L186.82 221.585L185.567 220.807L186.82 220.029Z" fill="#B4B6B6"/>
<path fill-rule="evenodd" clip-rule="evenodd" d="M185.567 220.808V233.298L186.819 234.072V221.584L185.567 220.808Z" fill="#9A9A9B"/>
<path fill-rule="evenodd" clip-rule="evenodd" d="M186.817 221.579V234.072L188.069 233.32V220.832L186.817 221.579Z" fill="#7A7B7B"/>
<path fill-rule="evenodd" clip-rule="evenodd" d="M171.577 212.077L172.829 212.876L171.577 213.632L170.324 212.854L171.577 212.077Z" fill="#B4B6B6"/>
<path fill-rule="evenodd" clip-rule="evenodd" d="M170.324 212.855V225.346L171.576 226.119V213.631L170.324 212.855Z" fill="#9A9A9B"/>
<path fill-rule="evenodd" clip-rule="evenodd" d="M171.574 213.626V226.119L172.826 225.367V212.879L171.574 213.626Z" fill="#7A7B7B"/>
<path fill-rule="evenodd" clip-rule="evenodd" d="M184.13 203.461L201.473 212.628L186.23 221.391L169.661 211.727L184.13 203.461Z" fill="#E0E0E0"/>
<path fill-rule="evenodd" clip-rule="evenodd" d="M170.987 188.881L187.224 198.49L186.23 198.593L169.661 188.928L170.987 188.881Z" fill="#E0E0E0"/>
<path fill-rule="evenodd" clip-rule="evenodd" d="M169.661 188.882L186.23 198.538V224.185L169.661 214.504L169.661 188.882Z" fill="#303030"/>
<path fill-rule="evenodd" clip-rule="evenodd" d="M186.23 221.326L201.473 212.561V215.455L186.23 224.179V221.326Z" fill="#646464"/>
<path fill-rule="evenodd" clip-rule="evenodd" d="M186.23 198.49H187.224V223.675L186.23 224.179V198.49Z" fill="#646464"/>
<path fill-rule="evenodd" clip-rule="evenodd" d="M198.893 186.789L210.929 193.542L204.95 197.021L193.076 190.165L198.893 186.789Z" fill="white"/>
<path fill-rule="evenodd" clip-rule="evenodd" d="M211.231 179.236L220.686 184.654L214.839 188.434L205.399 183.048L211.231 179.236Z" fill="#696969"/>
<path fill-rule="evenodd" clip-rule="evenodd" d="M211.327 179.656V182.807L214.19 184.56V181.299L211.327 179.656Z" fill="#8D8E90"/>
<path fill-rule="evenodd" clip-rule="evenodd" d="M214.181 184.558L217.946 182.011V178.528L214.181 180.904V184.558Z" fill="#ABAEB1"/>
<path fill-rule="evenodd" clip-rule="evenodd" d="M204.221 157.279L227.693 170.78V187.507L204.221 174.11L204.221 157.279Z" fill="#ABAEB1"/>
<path fill-rule="evenodd" clip-rule="evenodd" d="M202.798 157.988L226.27 171.489V188.215L202.798 174.818L202.798 157.988Z" fill="black"/>
<path fill-rule="evenodd" clip-rule="evenodd" d="M203.514 159.428L225.556 172.069V185.809L203.514 173.263L203.514 159.428Z" fill="#3367A3"/>
<path fill-rule="evenodd" clip-rule="evenodd" d="M212.582 171.96C212.582 171.142 213.247 170.856 214.065 171.322C214.882 171.788 215.548 172.832 215.548 173.65C215.548 174.468 214.882 174.754 214.065 174.288C213.247 173.822 212.582 172.778 212.582 171.96ZM213.883 173.484L214.945 173.027C215.034 172.989 215.034 172.844 214.945 172.704C214.856 172.564 214.711 172.482 214.622 172.521L213.721 172.908L213.477 172.524C213.388 172.384 213.243 172.302 213.154 172.34C213.065 172.379 213.065 172.523 213.154 172.663L213.56 173.3C213.604 173.37 213.663 173.426 213.721 173.459C213.78 173.493 213.838 173.504 213.883 173.484Z" fill="#FF3737"/>
<path fill-rule="evenodd" clip-rule="evenodd" d="M217.363 172.657C217.365 172.746 217.367 172.826 217.371 172.909C217.388 173.833 217.41 174.983 217.028 175.8C216.819 176.247 216.503 176.56 216.088 176.729C215.616 176.921 214.997 176.935 214.25 176.77C214.226 176.765 214.2 176.757 214.174 176.748C214.138 176.734 214.101 176.717 214.065 176.696C214.028 176.675 213.992 176.651 213.955 176.623C213.93 176.603 213.904 176.582 213.88 176.56C213.132 175.872 212.513 175.153 212.04 174.423C211.625 173.781 211.309 173.108 211.1 172.423C210.72 171.175 210.741 170.052 210.759 169.136C210.763 169.062 210.765 168.985 210.766 168.898C210.773 168.472 211.114 168.312 211.543 168.532C212.438 168.992 213.13 169.095 213.726 168.853C213.919 168.787 214.21 168.952 214.408 169.247C215 170.16 215.692 170.847 216.587 171.406C217.016 171.675 217.357 172.224 217.363 172.657ZM212.125 171.7C212.125 172.769 212.995 174.135 214.065 174.745C215.134 175.354 216.004 174.98 216.004 173.91C216.004 172.841 215.134 171.475 214.065 170.865C212.995 170.256 212.125 170.63 212.125 171.7Z" fill="#FF3737"/>
<path fill-rule="evenodd" clip-rule="evenodd" d="M202.801 157.992L204.166 157.209L227.698 170.783L226.272 171.488L202.801 157.992Z" fill="#DDDFDF"/>
<path fill-rule="evenodd" clip-rule="evenodd" d="M226.267 188.223L227.683 187.503V170.791L226.267 171.481V188.223Z" fill="#ABAEB1"/>
<path fill-rule="evenodd" clip-rule="evenodd" d="M195.802 154.418L199.617 156.663L190.538 162.073L186.601 159.799L195.802 154.418Z" fill="#DDDFDF"/>
<path fill-rule="evenodd" clip-rule="evenodd" d="M186.608 159.799L186.608 173.944L190.538 176.211V162.067L186.608 159.799Z" fill="#F1F1F1"/>
<path fill-rule="evenodd" clip-rule="evenodd" d="M187.099 161.888V163.497L189.589 165.125V163.517L187.099 161.888Z" fill="#6F6F6F"/>
<path fill-rule="evenodd" clip-rule="evenodd" d="M187.099 164.876V166.485L189.589 168.114V166.505L187.099 164.876Z" fill="#6F6F6F"/>
<path fill-rule="evenodd" clip-rule="evenodd" d="M187.099 167.865V169.473L189.589 171.102V169.493L187.099 167.865Z" fill="#6F6F6F"/>
<path fill-rule="evenodd" clip-rule="evenodd" d="M187.099 170.853V172.462L189.589 174.09V172.481L187.099 170.853Z" fill="#6F6F6F"/>
<path fill-rule="evenodd" clip-rule="evenodd" d="M190.516 162.058L199.615 156.672V170.797L190.516 176.223V162.058Z" fill="#CDCDCD"/>
<path fill-rule="evenodd" clip-rule="evenodd" d="M212.555 196.282C212.586 196.263 212.626 196.262 212.658 196.28L214.301 197.164C214.484 197.262 214.491 197.522 214.314 197.63L212.083 198.994C211.761 199.191 211.357 199.196 211.029 199.009V199.009C210.346 198.617 210.333 197.637 211.005 197.227L212.555 196.282Z" fill="white"/>
<path fill-rule="evenodd" clip-rule="evenodd" d="M214.065 200.952V202.906L222.813 208.195V206.098L214.065 200.952Z" fill="#717171"/>
<path fill-rule="evenodd" clip-rule="evenodd" d="M222.813 206.111L230.808 201.599V203.568L222.813 208.195V206.111Z" fill="#E4E4E4"/>
<path fill-rule="evenodd" clip-rule="evenodd" d="M224.359 200.128L221.222 188.881L224.359 190.645V200.128Z" fill="#3A92F8"/>
<path fill-rule="evenodd" clip-rule="evenodd" d="M229.175 203.072V193.709L232.612 195.654L229.175 203.072Z" fill="#3A92F8"/>
<path fill-rule="evenodd" clip-rule="evenodd" d="M222.401 196.741L230.811 201.598L222.816 206.117L214.065 200.952L222.401 196.741Z" fill="#2B2B2B"/>
<path fill-rule="evenodd" clip-rule="evenodd" d="M221.231 197.733L228.425 202.086L225.366 203.89L218.041 199.414L221.231 197.733Z" fill="#ABAEB1"/>
<path fill-rule="evenodd" clip-rule="evenodd" d="M224.359 190.647L225.162 190.647V198.33L224.359 197.868V190.647Z" fill="#1E5AA0"/>
<path fill-rule="evenodd" clip-rule="evenodd" d="M232.612 195.654H233.411L230.689 201.527L230.059 201.164L232.612 195.654Z" fill="#1E5AA0"/>
<path fill-rule="evenodd" clip-rule="evenodd" d="M221.228 188.887H222.035L225.162 190.647H224.357L221.228 188.887Z" fill="#1E5AA0"/>
<path fill-rule="evenodd" clip-rule="evenodd" d="M229.18 193.724L229.97 193.708L233.411 195.654H232.612L229.18 193.724Z" fill="#1E5AA0"/>
<path fill-rule="evenodd" clip-rule="evenodd" d="M93.4723 245.472L151.033 277.839L122.439 294.518L65.653 261.654L93.4723 245.472Z" fill="#D5C5A3"/>
<path fill-rule="evenodd" clip-rule="evenodd" d="M76.9304 238.433L79.0463 239.785L76.9304 241.063L74.8115 239.748L76.9304 238.433Z" fill="#B4B6B6"/>
<path fill-rule="evenodd" clip-rule="evenodd" d="M74.8115 239.749V260.867L76.9281 262.175V241.062L74.8115 239.749Z" fill="#9A9A9B"/>
<path fill-rule="evenodd" clip-rule="evenodd" d="M76.925 241.053V262.175L79.0416 260.904V239.789L76.925 241.053Z" fill="#7A7B7B"/>
<path fill-rule="evenodd" clip-rule="evenodd" d="M122.019 264.478L124.135 265.83L122.019 267.108L119.9 265.793L122.019 264.478Z" fill="#B4B6B6"/>
<path fill-rule="evenodd" clip-rule="evenodd" d="M119.9 265.794V286.913L122.016 288.22V267.107L119.9 265.794Z" fill="#9A9A9B"/>
<path fill-rule="evenodd" clip-rule="evenodd" d="M122.013 267.098V288.22L124.13 286.949V265.834L122.013 267.098Z" fill="#7A7B7B"/>
<path fill-rule="evenodd" clip-rule="evenodd" d="M138.222 255.327L140.338 256.679L138.222 257.957L136.103 256.642L138.222 255.327Z" fill="#B4B6B6"/>
<path fill-rule="evenodd" clip-rule="evenodd" d="M136.103 256.643V277.762L138.22 279.069V257.956L136.103 256.643Z" fill="#9A9A9B"/>
<path fill-rule="evenodd" clip-rule="evenodd" d="M138.217 257.947V279.069L140.334 277.798V256.683L138.217 257.947Z" fill="#7A7B7B"/>
<path fill-rule="evenodd" clip-rule="evenodd" d="M92.7678 224.354L150.329 256.721L121.735 273.401L64.9484 240.537L92.7678 224.354Z" fill="#F6F6F6"/>
<path fill-rule="evenodd" clip-rule="evenodd" d="M92.7678 221.539L150.329 253.906L121.735 270.585L64.9484 237.721L92.7678 221.539Z" fill="#CC9181"/>
<path fill-rule="evenodd" clip-rule="evenodd" d="M80.352 226.547L93.4462 234.462L89.4698 236.653L76.215 228.7L80.352 226.547Z" fill="#9F9F9F"/>
<path fill-rule="evenodd" clip-rule="evenodd" d="M76.215 228.629L76.2244 240.895L89.4698 248.711V236.527L76.215 228.629Z" fill="#2F2C2C"/>
<path fill-rule="evenodd" clip-rule="evenodd" d="M76.215 240.312L76.2244 240.895L89.4698 248.711V248.21L76.215 240.312Z" fill="white"/>
<path fill-rule="evenodd" clip-rule="evenodd" d="M89.4697 236.662L91.9544 235.191L93.4462 234.391V246.392L89.4697 248.715V236.662Z" fill="#616161"/>
<path fill-rule="evenodd" clip-rule="evenodd" d="M100.234 229.198L113.328 237.113L109.352 239.304L96.0972 231.351L100.234 229.198Z" fill="#9F9F9F"/>
<path fill-rule="evenodd" clip-rule="evenodd" d="M96.0972 231.28L96.1066 243.546L109.352 251.362V239.178L96.0972 231.28Z" fill="#2F2C2C"/>
<path fill-rule="evenodd" clip-rule="evenodd" d="M96.0972 242.984L96.1066 243.546L109.352 251.362V250.882L96.0972 242.984Z" fill="white"/>
<path fill-rule="evenodd" clip-rule="evenodd" d="M109.352 239.313L111.837 237.842L113.328 237.042V249.043L109.352 251.366V239.313Z" fill="#616161"/>
<path fill-rule="evenodd" clip-rule="evenodd" d="M120.116 232.512L133.211 240.427L129.234 242.617L115.979 234.665L120.116 232.512Z" fill="#9F9F9F"/>
<path fill-rule="evenodd" clip-rule="evenodd" d="M115.979 234.594L115.989 246.86L129.234 254.676V242.492L115.979 234.594Z" fill="#2F2C2C"/>
<path fill-rule="evenodd" clip-rule="evenodd" d="M115.979 246.517L115.989 247.036L129.234 254.852V254.414L115.979 246.517Z" fill="#EEEEEE"/>
<path fill-rule="evenodd" clip-rule="evenodd" d="M129.234 242.627L131.719 241.156L133.211 240.355V252.356L129.234 254.68V242.627Z" fill="#616161"/>
<path d="M121.979 242.299C122.944 242.882 123.726 244.448 123.726 245.797C123.726 247.147 122.944 247.768 121.979 247.185C121.55 246.926 121.157 246.472 120.853 245.93C121.329 246.834 122.036 247.652 122.825 248.129C123.31 248.422 123.764 248.548 124.153 248.526C124.831 248.328 125.258 247.705 125.258 246.723C125.258 245.741 124.831 244.601 124.153 243.585C123.764 243.093 123.31 242.67 122.825 242.377C122.036 241.9 121.328 241.864 120.853 242.195" fill="#D32F2F"/>
<path d="M118.63 242.719C118.63 244.496 120.03 246.792 121.786 247.935C121.838 247.969 121.891 248.003 121.944 248.035C122.792 248.547 123.566 248.696 124.152 248.525C123.764 248.548 123.31 248.422 122.824 248.129C122.035 247.652 121.328 246.834 120.853 245.929C120.486 245.275 120.249 244.493 120.233 243.766C120.233 243.764 120.233 243.611 120.233 243.609C120.249 242.902 120.487 242.406 120.853 242.194C121.328 241.864 122.035 241.9 122.824 242.377C123.31 242.67 123.764 243.093 124.152 243.585C123.569 242.711 122.8 241.928 121.956 241.415C120.114 240.301 118.63 240.889 118.63 242.719Z" fill="#F44336"/>
<path d="M103.671 238.578L99.4109 237.776V242.273L100.831 242.619V238.832L103.671 239.998V245.226L99.4109 242.273L103.671 246.152L106.038 246.808V240.654L103.671 238.578Z" fill="#FF5722"/>
<path d="M82.668 235.674L86.1561 237.02V240.124L82.668 238.255V235.674Z" fill="#90C300"/>
<path d="M79.5287 234.445L82.2029 235.483V238.04L79.5287 236.607V234.445Z" fill="#F8672C"/>
<path d="M82.668 241.255L86.1561 243.647V240.624L82.668 238.755V241.255Z" fill="#FFC400"/>
<path d="M79.5287 239.119L82.2029 240.947V238.506L79.5287 237.073V239.119Z" fill="#00B4F2"/>
<path fill-rule="evenodd" clip-rule="evenodd" d="M64.9484 237.729L121.726 270.569V273.399L64.9484 240.535L64.9484 237.729Z" fill="#350100"/>
<path fill-rule="evenodd" clip-rule="evenodd" d="M121.726 270.564L150.332 253.916V256.729L121.726 273.405V270.564Z" fill="#99614A"/>
<path fill-rule="evenodd" clip-rule="evenodd" d="M79.221 264.433L118.464 286.568L90.4091 302.209L51.6937 279.734L79.221 264.433Z" fill="#D5C5A3"/>
<path fill-rule="evenodd" clip-rule="evenodd" d="M98.0131 272.386L99.2645 273.185L98.0131 273.941L96.7599 273.164L98.0131 272.386Z" fill="#B4B6B6"/>
<path fill-rule="evenodd" clip-rule="evenodd" d="M96.7599 273.164V285.655L98.0117 286.428V273.941L96.7599 273.164Z" fill="#9A9A9B"/>
<path fill-rule="evenodd" clip-rule="evenodd" d="M98.0099 273.936V286.428L99.2618 285.676V273.188L98.0099 273.936Z" fill="#7A7B7B"/>
<path fill-rule="evenodd" clip-rule="evenodd" d="M86.0839 277.688L87.3353 278.487L86.0839 279.243L84.8306 278.465L86.0839 277.688Z" fill="#B4B6B6"/>
<path fill-rule="evenodd" clip-rule="evenodd" d="M84.8306 278.466V290.957L86.0825 291.73V279.243L84.8306 278.466Z" fill="#9A9A9B"/>
<path fill-rule="evenodd" clip-rule="evenodd" d="M86.0807 279.238V291.73L87.3326 290.978V278.49L86.0807 279.238Z" fill="#7A7B7B"/>
<path fill-rule="evenodd" clip-rule="evenodd" d="M70.8408 269.735L72.0923 270.534L70.8408 271.29L69.5876 270.513L70.8408 269.735Z" fill="#B4B6B6"/>
<path fill-rule="evenodd" clip-rule="evenodd" d="M69.5876 270.513V283.004L70.8394 283.777V271.29L69.5876 270.513Z" fill="#9A9A9B"/>
<path fill-rule="evenodd" clip-rule="evenodd" d="M70.8376 271.285V283.777L72.0895 283.025V270.537L70.8376 271.285Z" fill="#7A7B7B"/>
<path fill-rule="evenodd" clip-rule="evenodd" d="M83.3934 261.119L100.736 270.287L85.4933 279.05L68.9249 269.385L83.3934 261.119Z" fill="#E0E0E0"/>
<path fill-rule="evenodd" clip-rule="evenodd" d="M70.2503 246.539L86.4875 256.149L85.4933 256.251L68.9249 246.586L70.2503 246.539Z" fill="#E0E0E0"/>
<path fill-rule="evenodd" clip-rule="evenodd" d="M68.9249 246.54L85.4934 256.197V281.843L68.9249 272.162L68.9249 246.54Z" fill="#303030"/>
<path fill-rule="evenodd" clip-rule="evenodd" d="M85.4933 278.985L100.736 270.219V273.113L85.4933 281.837V278.985Z" fill="#646464"/>
<path fill-rule="evenodd" clip-rule="evenodd" d="M85.4933 256.149H86.4874V281.333L85.4933 281.837V256.149Z" fill="#646464"/>
<path fill-rule="evenodd" clip-rule="evenodd" d="M367.846 170.583L425.407 202.95L396.813 219.629L340.027 186.765L367.846 170.583Z" fill="#D5C5A3"/>
<path fill-rule="evenodd" clip-rule="evenodd" d="M351.304 163.543L353.42 164.895L351.304 166.173L349.186 164.858L351.304 163.543Z" fill="#B4B6B6"/>
<path fill-rule="evenodd" clip-rule="evenodd" d="M349.186 164.859V185.978L351.302 187.285V166.172L349.186 164.859Z" fill="#9A9A9B"/>
<path fill-rule="evenodd" clip-rule="evenodd" d="M351.299 166.164V187.286L353.416 186.014V164.9L351.299 166.164Z" fill="#7A7B7B"/>
<path fill-rule="evenodd" clip-rule="evenodd" d="M396.393 189.589L398.509 190.94L396.393 192.219L394.274 190.904L396.393 189.589Z" fill="#B4B6B6"/>
<path fill-rule="evenodd" clip-rule="evenodd" d="M394.274 190.904V212.023L396.391 213.33V192.217L394.274 190.904Z" fill="#9A9A9B"/>
<path fill-rule="evenodd" clip-rule="evenodd" d="M396.387 192.209V213.331L398.504 212.059V190.945L396.387 192.209Z" fill="#7A7B7B"/>
<path fill-rule="evenodd" clip-rule="evenodd" d="M412.596 180.438L414.712 181.789L412.596 183.068L410.478 181.753L412.596 180.438Z" fill="#B4B6B6"/>
<path fill-rule="evenodd" clip-rule="evenodd" d="M410.478 181.753V202.872L412.594 204.179V183.066L410.478 181.753Z" fill="#9A9A9B"/>
<path fill-rule="evenodd" clip-rule="evenodd" d="M412.591 183.058V204.18L414.708 202.908V181.794L412.591 183.058Z" fill="#7A7B7B"/>
<path fill-rule="evenodd" clip-rule="evenodd" d="M367.142 149.465L424.703 181.832L396.109 198.511L339.323 165.647L367.142 149.465Z" fill="#F6F6F6"/>
<path fill-rule="evenodd" clip-rule="evenodd" d="M367.142 146.649L424.703 179.016L396.109 195.696L339.323 162.831L367.142 146.649Z" fill="#CC9181"/>
<path fill-rule="evenodd" clip-rule="evenodd" d="M339.323 162.839L396.1 195.679V198.509L339.323 165.645L339.323 162.839Z" fill="#350100"/>
<path fill-rule="evenodd" clip-rule="evenodd" d="M396.1 195.675L424.706 179.026V181.839L396.1 198.515V195.675Z" fill="#99614A"/>
<path fill-rule="evenodd" clip-rule="evenodd" d="M353.595 189.543L392.838 211.678L364.783 227.32L326.068 204.845L353.595 189.543Z" fill="#D5C5A3"/>
<path fill-rule="evenodd" clip-rule="evenodd" d="M372.387 197.496L373.639 198.296L372.387 199.052L371.134 198.274L372.387 197.496Z" fill="#B4B6B6"/>
<path fill-rule="evenodd" clip-rule="evenodd" d="M371.134 198.275V210.765L372.386 211.539V199.051L371.134 198.275Z" fill="#9A9A9B"/>
<path fill-rule="evenodd" clip-rule="evenodd" d="M372.384 199.046V211.539L373.636 210.787V198.298L372.384 199.046Z" fill="#7A7B7B"/>
<path fill-rule="evenodd" clip-rule="evenodd" d="M360.458 202.798L361.709 203.598L360.458 204.354L359.205 203.576L360.458 202.798Z" fill="#B4B6B6"/>
<path fill-rule="evenodd" clip-rule="evenodd" d="M359.205 203.577V216.067L360.457 216.841V204.353L359.205 203.577Z" fill="#9A9A9B"/>
<path fill-rule="evenodd" clip-rule="evenodd" d="M360.455 204.348V216.841L361.707 216.089V203.6L360.455 204.348Z" fill="#7A7B7B"/>
<path fill-rule="evenodd" clip-rule="evenodd" d="M345.215 194.845L346.466 195.645L345.215 196.401L343.962 195.623L345.215 194.845Z" fill="#B4B6B6"/>
<path fill-rule="evenodd" clip-rule="evenodd" d="M343.962 195.624V208.114L345.214 208.888V196.4L343.962 195.624Z" fill="#9A9A9B"/>
<path fill-rule="evenodd" clip-rule="evenodd" d="M345.212 196.395V208.888L346.464 208.136V195.648L345.212 196.395Z" fill="#7A7B7B"/>
<path fill-rule="evenodd" clip-rule="evenodd" d="M357.767 186.23L375.11 195.397L359.867 204.16L343.299 194.496L357.767 186.23Z" fill="#E0E0E0"/>
<path fill-rule="evenodd" clip-rule="evenodd" d="M344.624 171.65L360.862 181.259L359.867 181.361L343.299 171.697L344.624 171.65Z" fill="#E0E0E0"/>
<path fill-rule="evenodd" clip-rule="evenodd" d="M343.299 171.651L359.867 181.307V206.954L343.299 197.273L343.299 171.651Z" fill="#303030"/>
<path fill-rule="evenodd" clip-rule="evenodd" d="M359.867 204.095L375.11 195.33V198.224L359.867 206.948V204.095Z" fill="#646464"/>
<path fill-rule="evenodd" clip-rule="evenodd" d="M359.867 181.259H360.862V206.443L359.867 206.948V181.259Z" fill="#646464"/>
<path d="M361.856 169.31V169.918L379.202 179.961L391.07 172.961V172.353L379.202 179.352L361.856 169.31Z" fill="#ABAEB1"/>
<path d="M391.07 172.961L379.202 179.961L361.856 169.918L373.724 163.223L391.07 172.961Z" fill="#8D8E90"/>
<path d="M391.07 172.353L379.202 179.352L361.856 169.31L373.724 162.919L391.07 172.353Z" fill="#B4B6B6"/>
<path d="M376.729 173.659L373.654 175.472L369.159 172.87L372.234 171.135L376.729 173.659Z" fill="#DCDCDC"/>
<path d="M388.636 172.961L383.088 176.169L366.959 167.265L372.811 164.136L388.636 172.961Z" fill="#DCDCDC"/>
<path fill-rule="evenodd" clip-rule="evenodd" d="M373.855 150.596L391.066 160.496V172.761L373.855 162.938L373.855 150.596Z" fill="#ABAEB1"/>
<path fill-rule="evenodd" clip-rule="evenodd" d="M372.811 151.115L390.023 161.015V173.281L372.811 163.457L372.811 151.115Z" fill="black"/>
<path fill-rule="evenodd" clip-rule="evenodd" d="M373.336 152.172L389.499 161.441V171.517L373.336 162.316L373.336 152.172Z" fill="#3367A3"/>
<path fill-rule="evenodd" clip-rule="evenodd" d="M382.92 162.706C382.976 162.738 383.041 162.817 383.047 162.877C383.064 163.036 383.064 163.188 383.046 163.328C383.04 163.382 382.987 163.396 382.93 163.359L382.906 163.345C382.73 163.245 382.567 163.261 382.499 163.384C382.427 163.514 382.472 163.739 382.61 163.942C382.654 164.006 382.659 164.075 382.622 164.1C382.528 164.164 382.42 164.21 382.301 164.236C382.255 164.245 382.19 164.203 382.151 164.138C382.033 163.941 381.823 163.773 381.659 163.748C381.49 163.721 381.381 163.829 381.387 164.017C381.389 164.076 381.347 164.102 381.289 164.075C381.216 164.042 381.144 164.005 381.071 163.964C380.994 163.92 380.918 163.873 380.842 163.821C380.784 163.781 380.741 163.706 380.745 163.65C380.755 163.469 380.647 163.235 380.476 163.066C380.312 162.905 380.099 162.833 379.981 162.897C379.941 162.918 379.875 162.886 379.829 162.823C379.713 162.664 379.607 162.497 379.515 162.327C379.479 162.262 379.485 162.199 379.527 162.184C379.663 162.137 379.708 161.965 379.638 161.756C379.569 161.547 379.403 161.346 379.23 161.252C379.173 161.22 379.106 161.141 379.099 161.081C379.083 160.921 379.083 160.769 379.1 160.63C379.107 160.576 379.152 160.559 379.215 160.597C379.409 160.707 379.579 160.698 379.647 160.574C379.719 160.443 379.674 160.218 379.536 160.015C379.493 159.951 379.488 159.882 379.524 159.857C379.618 159.793 379.727 159.748 379.846 159.722C379.891 159.712 379.956 159.754 379.996 159.819C380.114 160.016 380.325 160.184 380.487 160.21C380.657 160.236 380.766 160.128 380.759 159.94C380.757 159.881 380.8 159.856 380.858 159.882C381.006 159.95 381.156 160.035 381.305 160.136C381.363 160.176 381.405 160.251 381.402 160.308C381.391 160.488 381.499 160.722 381.67 160.891C381.835 161.053 382.047 161.124 382.166 161.06C382.205 161.039 382.271 161.072 382.317 161.134C382.432 161.292 382.538 161.459 382.631 161.63C382.667 161.696 382.662 161.758 382.619 161.773C382.484 161.82 382.439 161.993 382.508 162.201C382.576 162.405 382.738 162.603 382.92 162.706ZM380.414 161.609C380.414 161.975 380.711 162.44 381.076 162.647C381.442 162.854 381.739 162.725 381.739 162.36C381.739 161.995 381.442 161.529 381.076 161.322C380.711 161.115 380.414 161.244 380.414 161.609Z" fill="white"/>
<path fill-rule="evenodd" clip-rule="evenodd" d="M372.813 151.119L373.814 150.545L391.07 160.498L390.024 161.015L372.813 151.119Z" fill="#DDDFDF"/>
<path fill-rule="evenodd" clip-rule="evenodd" d="M390.02 173.286L391.059 172.759V160.504L390.02 161.01V173.286Z" fill="#ABAEB1"/>
<path fill-rule="evenodd" clip-rule="evenodd" d="M386.192 179.051C386.224 179.032 386.263 179.031 386.296 179.048L387.939 179.933C388.121 180.031 388.129 180.291 387.951 180.399L385.721 181.763C385.399 181.96 384.995 181.965 384.667 181.777V181.777C383.984 181.386 383.97 180.406 384.643 179.996L386.192 179.051Z" fill="white"/>
<path fill-rule="evenodd" clip-rule="evenodd" d="M268.435 230.892L325.996 263.259L297.402 279.938L240.616 247.074L268.435 230.892Z" fill="#D5C5A3"/>
<path fill-rule="evenodd" clip-rule="evenodd" d="M251.894 223.853L254.009 225.205L251.894 226.483L249.775 225.168L251.894 223.853Z" fill="#B4B6B6"/>
<path fill-rule="evenodd" clip-rule="evenodd" d="M249.775 225.169V246.287L251.891 247.595V226.482L249.775 225.169Z" fill="#9A9A9B"/>
<path fill-rule="evenodd" clip-rule="evenodd" d="M251.888 226.473V247.595L254.005 246.323V225.209L251.888 226.473Z" fill="#7A7B7B"/>
<path fill-rule="evenodd" clip-rule="evenodd" d="M296.982 249.898L299.098 251.25L296.982 252.528L294.863 251.213L296.982 249.898Z" fill="#B4B6B6"/>
<path fill-rule="evenodd" clip-rule="evenodd" d="M294.863 251.214V272.332L296.98 273.64V252.527L294.863 251.214Z" fill="#9A9A9B"/>
<path fill-rule="evenodd" clip-rule="evenodd" d="M296.977 252.518V273.64L299.093 272.369V251.254L296.977 252.518Z" fill="#7A7B7B"/>
<path fill-rule="evenodd" clip-rule="evenodd" d="M313.186 240.747L315.301 242.099L313.186 243.377L311.067 242.062L313.186 240.747Z" fill="#B4B6B6"/>
<path fill-rule="evenodd" clip-rule="evenodd" d="M311.067 242.063V263.181L313.183 264.489V243.376L311.067 242.063Z" fill="#9A9A9B"/>
<path fill-rule="evenodd" clip-rule="evenodd" d="M313.18 243.367V264.489L315.297 263.218V242.103L313.18 243.367Z" fill="#7A7B7B"/>
<path fill-rule="evenodd" clip-rule="evenodd" d="M267.731 209.774L325.292 242.141L296.698 258.821L239.912 225.956L267.731 209.774Z" fill="#F6F6F6"/>
<path fill-rule="evenodd" clip-rule="evenodd" d="M267.731 206.959L325.292 239.325L296.698 256.005L239.912 223.141L267.731 206.959Z" fill="#CC9181"/>
<path fill-rule="evenodd" clip-rule="evenodd" d="M239.912 223.149L296.689 255.989V258.818L239.912 225.954L239.912 223.149Z" fill="#350100"/>
<path fill-rule="evenodd" clip-rule="evenodd" d="M296.689 255.984L325.295 239.335V242.149L296.689 258.825V255.984Z" fill="#99614A"/>
<path fill-rule="evenodd" clip-rule="evenodd" d="M254.184 249.853L293.428 271.987L265.372 287.629L226.657 265.154L254.184 249.853Z" fill="#D5C5A3"/>
<path fill-rule="evenodd" clip-rule="evenodd" d="M272.976 257.806L274.228 258.605L272.976 259.361L271.723 258.583L272.976 257.806Z" fill="#B4B6B6"/>
<path fill-rule="evenodd" clip-rule="evenodd" d="M271.723 258.584V271.075L272.975 271.848V259.36L271.723 258.584Z" fill="#9A9A9B"/>
<path fill-rule="evenodd" clip-rule="evenodd" d="M272.973 259.355V271.848L274.225 271.096V258.608L272.973 259.355Z" fill="#7A7B7B"/>
<path fill-rule="evenodd" clip-rule="evenodd" d="M261.047 263.108L262.298 263.907L261.047 264.663L259.794 263.885L261.047 263.108Z" fill="#B4B6B6"/>
<path fill-rule="evenodd" clip-rule="evenodd" d="M259.794 263.886V276.377L261.046 277.15V264.662L259.794 263.886Z" fill="#9A9A9B"/>
<path fill-rule="evenodd" clip-rule="evenodd" d="M261.044 264.657V277.15L262.296 276.398V263.91L261.044 264.657Z" fill="#7A7B7B"/>
<path fill-rule="evenodd" clip-rule="evenodd" d="M245.804 255.155L247.055 255.954L245.804 256.71L244.551 255.932L245.804 255.155Z" fill="#B4B6B6"/>
<path fill-rule="evenodd" clip-rule="evenodd" d="M244.551 255.933V268.424L245.803 269.197V256.709L244.551 255.933Z" fill="#9A9A9B"/>
<path fill-rule="evenodd" clip-rule="evenodd" d="M245.801 256.704V269.197L247.053 268.445V255.957L245.801 256.704Z" fill="#7A7B7B"/>
<path fill-rule="evenodd" clip-rule="evenodd" d="M258.357 246.539L275.7 255.706L260.457 264.47L243.888 254.805L258.357 246.539Z" fill="#E0E0E0"/>
<path fill-rule="evenodd" clip-rule="evenodd" d="M245.214 231.959L261.451 241.568L260.457 241.671L243.888 232.006L245.214 231.959Z" fill="#E0E0E0"/>
<path fill-rule="evenodd" clip-rule="evenodd" d="M243.888 231.96L260.457 241.616V267.263L243.888 257.582L243.888 231.96Z" fill="#303030"/>
<path fill-rule="evenodd" clip-rule="evenodd" d="M260.457 264.404L275.7 255.639V258.533L260.457 267.257V264.404Z" fill="#646464"/>
<path fill-rule="evenodd" clip-rule="evenodd" d="M260.457 241.568H261.451V266.753L260.457 267.257V241.568Z" fill="#646464"/>
<path fill-rule="evenodd" clip-rule="evenodd" d="M273.119 229.867L285.156 236.62L279.177 240.099L267.302 233.243L273.119 229.867Z" fill="white"/>
<path fill-rule="evenodd" clip-rule="evenodd" d="M285.696 225.141L295.15 230.559L289.303 234.34L279.864 228.953L285.696 225.141Z" fill="#696969"/>
<path fill-rule="evenodd" clip-rule="evenodd" d="M285.792 225.561V228.712L288.654 230.466V227.205L285.792 225.561Z" fill="#8D8E90"/>
<path fill-rule="evenodd" clip-rule="evenodd" d="M288.646 230.463L292.41 227.916V224.433L288.646 226.809V230.463Z" fill="#ABAEB1"/>
<path fill-rule="evenodd" clip-rule="evenodd" d="M278.685 203.185L302.158 216.686V233.412L278.685 220.015L278.685 203.185Z" fill="#ABAEB1"/>
<path fill-rule="evenodd" clip-rule="evenodd" d="M277.262 203.893L300.735 217.394V234.12L277.262 220.724L277.262 203.893Z" fill="black"/>
<path fill-rule="evenodd" clip-rule="evenodd" d="M277.979 205.333L300.02 217.974V231.715L277.979 219.168L277.979 205.333Z" fill="#3367A3"/>
<path d="M287.985 213.244L288.477 213.522V214.542L287.985 214.263V213.244Z" fill="#FEB415"/>
<path d="M284.55 212.864L284.791 212.76L285.511 213.888L285.271 213.992L284.55 212.864Z" fill="#FEB415"/>
<path d="M283.227 215.309L284.247 215.886V216.379L283.227 215.802V215.309Z" fill="#FEB415"/>
<path d="M292.063 220.309L293.082 220.885V221.378L292.063 220.801V220.309Z" fill="#FEB415"/>
<path d="M290.798 216.88L291.519 216.567L291.759 216.943L291.038 217.256L290.798 216.88Z" fill="#FEB415"/>
<path d="M290.194 223.329L286.116 221.022C286.022 220.969 285.946 221.036 285.946 221.172C285.946 221.308 286.022 221.461 286.116 221.514L290.194 223.822C290.287 223.875 290.364 223.807 290.364 223.672C290.364 223.536 290.287 223.382 290.194 223.329Z" fill="#FEB415"/>
<path d="M288.155 223.535C288.67 223.827 289.142 223.833 289.423 223.573L286.886 222.137C287.167 222.715 287.637 223.242 288.155 223.535Z" fill="#FEB415"/>
<path d="M290.194 222.649L286.116 220.342C286.022 220.289 285.946 220.356 285.946 220.492C285.946 220.628 286.022 220.782 286.116 220.835L290.194 223.142C290.287 223.195 290.364 223.128 290.364 222.992C290.364 222.856 290.287 222.702 290.194 222.649Z" fill="#FEB415"/>
<path fill-rule="evenodd" clip-rule="evenodd" d="M284.927 216.37C284.963 214.711 286.304 214.085 287.98 214.945C288.874 215.403 289.727 216.199 290.376 217.182C291.025 218.165 291.383 219.199 291.383 220.094C291.383 221.026 290.979 221.683 290.274 221.898C290.125 221.944 290.002 222.029 289.906 222.147L286.398 220.162C286.299 219.93 286.172 219.699 286.017 219.473C285.304 218.44 284.907 217.309 284.927 216.37ZM290.382 219.357L290.873 219.636V219.126C290.873 218.845 290.644 218.487 290.363 218.328L290.024 218.136V217.984C290.024 217.726 289.841 217.399 289.598 217.222C289.449 217.113 289.298 217.069 289.184 217.102C289.07 217.134 289.004 217.239 289.004 217.389V217.559L287.475 216.693V217.015C287.475 217.106 287.413 217.153 287.335 217.121C287.284 217.101 287.234 217.059 287.195 217.005C287.157 216.951 287.135 216.891 287.135 216.841V216.501L286.625 216.213C286.344 216.054 286.116 216.153 286.116 216.434V216.604L285.964 216.518C285.706 216.373 285.482 216.428 285.443 216.649C285.419 216.784 285.46 216.959 285.557 217.128C285.654 217.297 285.796 217.443 285.946 217.527L286.116 217.624V217.793C286.116 218.074 286.344 218.433 286.625 218.592L287.135 218.88V218.558C287.135 218.467 287.197 218.42 287.275 218.452C287.326 218.472 287.376 218.514 287.415 218.569C287.453 218.623 287.475 218.682 287.475 218.732V219.072L290.363 220.707C290.644 220.865 290.873 220.766 290.873 220.485V219.975L290.363 219.687C290.313 219.659 290.266 219.61 290.234 219.554C290.201 219.496 290.187 219.439 290.196 219.393C290.209 219.321 290.29 219.306 290.382 219.357Z" fill="#FEB415"/>
<path d="M288.794 218.739C288.827 218.719 288.84 218.677 288.832 218.621C288.819 218.535 288.738 218.427 288.646 218.376L288.155 218.098V217.418L287.814 217.225C287.806 217.471 287.626 217.583 287.389 217.488C287.24 217.428 287.089 217.301 286.975 217.139C286.861 216.977 286.795 216.799 286.795 216.649L286.625 216.553C286.532 216.499 286.455 216.533 286.455 216.626V217.136L285.964 216.858C285.872 216.806 285.791 216.822 285.778 216.893C285.77 216.94 285.783 216.997 285.816 217.054C285.848 217.11 285.896 217.159 285.946 217.187L286.455 217.476V217.986C286.455 218.079 286.532 218.199 286.625 218.252L286.796 218.348C286.804 218.103 286.984 217.99 287.221 218.086C287.37 218.146 287.521 218.273 287.635 218.434C287.749 218.596 287.815 218.775 287.815 218.925L288.155 219.117V218.437L288.664 218.726C288.714 218.754 288.761 218.759 288.794 218.739Z" fill="#FEB415"/>
<path d="M289.684 218.283V217.791C289.684 217.7 289.622 217.584 289.544 217.526C289.492 217.488 289.443 217.474 289.404 217.485C289.366 217.496 289.344 217.531 289.344 217.581V218.091L288.494 217.61V217.95L288.646 218.036C288.904 218.181 289.128 218.491 289.167 218.756C289.192 218.919 289.15 219.046 289.053 219.105C288.956 219.165 288.814 219.15 288.664 219.065L288.494 218.969V219.309L290.363 220.367C290.457 220.42 290.533 220.387 290.533 220.293V220.123L290.363 220.027C290.214 219.942 290.072 219.796 289.975 219.627C289.878 219.458 289.836 219.284 289.861 219.148C289.9 218.928 290.124 218.872 290.382 219.018L290.533 219.104V218.934C290.533 218.84 290.457 218.721 290.363 218.668L289.684 218.283Z" fill="#FEB415"/>
<path fill-rule="evenodd" clip-rule="evenodd" d="M277.265 203.898L278.63 203.115L302.162 216.688L300.736 217.393L277.265 203.898Z" fill="#DDDFDF"/>
<path fill-rule="evenodd" clip-rule="evenodd" d="M300.731 234.128L302.147 233.408V216.696L300.731 217.386V234.128Z" fill="#ABAEB1"/>
<path fill-rule="evenodd" clip-rule="evenodd" d="M270.028 197.496L273.844 199.741L264.765 205.151L260.828 202.877L270.028 197.496Z" fill="#DDDFDF"/>
<path fill-rule="evenodd" clip-rule="evenodd" d="M260.835 202.877L260.835 217.022L264.765 219.289V205.145L260.835 202.877Z" fill="#F1F1F1"/>
<path fill-rule="evenodd" clip-rule="evenodd" d="M261.326 204.967V206.575L263.816 208.204V206.595L261.326 204.967Z" fill="#6F6F6F"/>
<path fill-rule="evenodd" clip-rule="evenodd" d="M261.326 207.955V209.563L263.816 211.192V209.583L261.326 207.955Z" fill="#6F6F6F"/>
<path fill-rule="evenodd" clip-rule="evenodd" d="M261.326 210.943V212.552L263.816 214.18V212.571L261.326 210.943Z" fill="#6F6F6F"/>
<path fill-rule="evenodd" clip-rule="evenodd" d="M261.326 213.931V215.54L263.816 217.168V215.559L261.326 213.931Z" fill="#6F6F6F"/>
<path fill-rule="evenodd" clip-rule="evenodd" d="M264.743 205.137L273.842 199.75V213.875L264.743 219.301V205.137Z" fill="#CDCDCD"/>
<path fill-rule="evenodd" clip-rule="evenodd" d="M251.864 223.642V225.322L259.724 229.867V228.065L251.864 223.642Z" fill="#717171"/>
<path fill-rule="evenodd" clip-rule="evenodd" d="M259.724 228.076L266.907 224.198V225.891L259.724 229.867V228.076Z" fill="#E4E4E4"/>
<path fill-rule="evenodd" clip-rule="evenodd" d="M259.354 220.023L266.91 224.198L259.727 228.081L251.864 223.642L259.354 220.023Z" fill="#2B2B2B"/>
<path fill-rule="evenodd" clip-rule="evenodd" d="M258.303 220.875L264.766 224.617L262.018 226.167L255.437 222.32L258.303 220.875Z" fill="#ABAEB1"/>
<path fill-rule="evenodd" clip-rule="evenodd" d="M263.038 217.737L268.073 220.186V220.186C266.46 220.702 265.049 221.709 264.036 223.066L262.704 224.853L257.58 221.864L258.62 220.566C259.742 219.164 261.295 218.17 263.038 217.737V217.737Z" fill="white"/>
<path fill-rule="evenodd" clip-rule="evenodd" d="M286.781 239.36C286.813 239.341 286.852 239.34 286.885 239.358L288.528 240.242C288.711 240.34 288.718 240.6 288.54 240.709L286.31 242.072C285.988 242.269 285.584 242.274 285.256 242.087V242.087C284.573 241.695 284.56 240.715 285.232 240.305L286.781 239.36Z" fill="white"/>
<path fill-rule="evenodd" clip-rule="evenodd" d="M167.699 288.55L225.26 320.917L196.666 337.597L139.88 304.732L167.699 288.55Z" fill="#D5C5A3"/>
<path fill-rule="evenodd" clip-rule="evenodd" d="M151.157 281.511L153.273 282.863L151.157 284.141L149.038 282.826L151.157 281.511Z" fill="#B4B6B6"/>
<path fill-rule="evenodd" clip-rule="evenodd" d="M149.038 282.827V303.946L151.155 305.253V284.14L149.038 282.827Z" fill="#9A9A9B"/>
<path fill-rule="evenodd" clip-rule="evenodd" d="M151.152 284.131V305.253L153.268 303.982V282.867L151.152 284.131Z" fill="#7A7B7B"/>
<path fill-rule="evenodd" clip-rule="evenodd" d="M196.246 307.556L198.361 308.908L196.246 310.186L194.127 308.871L196.246 307.556Z" fill="#B4B6B6"/>
<path fill-rule="evenodd" clip-rule="evenodd" d="M194.127 308.872V329.991L196.243 331.298V310.185L194.127 308.872Z" fill="#9A9A9B"/>
<path fill-rule="evenodd" clip-rule="evenodd" d="M196.24 310.176V331.298L198.357 330.027V308.912L196.24 310.176Z" fill="#7A7B7B"/>
<path fill-rule="evenodd" clip-rule="evenodd" d="M212.449 298.405L214.565 299.757L212.449 301.035L210.33 299.72L212.449 298.405Z" fill="#B4B6B6"/>
<path fill-rule="evenodd" clip-rule="evenodd" d="M210.33 299.721V320.84L212.447 322.147V301.034L210.33 299.721Z" fill="#9A9A9B"/>
<path fill-rule="evenodd" clip-rule="evenodd" d="M212.444 301.025V322.147L214.56 320.876V299.761L212.444 301.025Z" fill="#7A7B7B"/>
<path fill-rule="evenodd" clip-rule="evenodd" d="M166.995 267.432L224.555 299.799L195.962 316.479L139.175 283.615L166.995 267.432Z" fill="#F6F6F6"/>
<path fill-rule="evenodd" clip-rule="evenodd" d="M166.995 264.617L224.555 296.984L195.962 313.663L139.175 280.799L166.995 264.617Z" fill="#CC9181"/>
<path fill-rule="evenodd" clip-rule="evenodd" d="M139.175 280.807L195.953 313.647V316.477L139.175 283.613L139.175 280.807Z" fill="#350100"/>
<path fill-rule="evenodd" clip-rule="evenodd" d="M195.953 313.642L224.559 296.994V299.807L195.953 316.483V313.642Z" fill="#99614A"/>
<path fill-rule="evenodd" clip-rule="evenodd" d="M153.448 307.511L192.691 329.646L164.636 345.287L125.92 322.812L153.448 307.511Z" fill="#D5C5A3"/>
<path fill-rule="evenodd" clip-rule="evenodd" d="M172.24 315.464L173.491 316.263L172.24 317.019L170.987 316.242L172.24 315.464Z" fill="#B4B6B6"/>
<path fill-rule="evenodd" clip-rule="evenodd" d="M170.987 316.242V328.733L172.239 329.506V317.019L170.987 316.242Z" fill="#9A9A9B"/>
<path fill-rule="evenodd" clip-rule="evenodd" d="M172.237 317.014V329.506L173.489 328.754V316.266L172.237 317.014Z" fill="#7A7B7B"/>
<path fill-rule="evenodd" clip-rule="evenodd" d="M160.311 320.766L161.562 321.565L160.311 322.321L159.057 321.544L160.311 320.766Z" fill="#B4B6B6"/>
<path fill-rule="evenodd" clip-rule="evenodd" d="M159.057 321.544V334.035L160.309 334.808V322.321L159.057 321.544Z" fill="#9A9A9B"/>
<path fill-rule="evenodd" clip-rule="evenodd" d="M160.307 322.316V334.808L161.559 334.056V321.568L160.307 322.316Z" fill="#7A7B7B"/>
<path fill-rule="evenodd" clip-rule="evenodd" d="M145.068 312.813L146.319 313.613L145.068 314.368L143.814 313.591L145.068 312.813Z" fill="#B4B6B6"/>
<path fill-rule="evenodd" clip-rule="evenodd" d="M143.814 313.591V326.082L145.066 326.855V314.368L143.814 313.591Z" fill="#9A9A9B"/>
<path fill-rule="evenodd" clip-rule="evenodd" d="M145.064 314.363V326.855L146.316 326.103V313.615L145.064 314.363Z" fill="#7A7B7B"/>
<path fill-rule="evenodd" clip-rule="evenodd" d="M157.62 304.197L174.963 313.365L159.72 322.128L143.152 312.463L157.62 304.197Z" fill="#E0E0E0"/>
<path fill-rule="evenodd" clip-rule="evenodd" d="M144.477 289.617L160.714 299.227L159.72 299.329L143.152 289.664L144.477 289.617Z" fill="#E0E0E0"/>
<path fill-rule="evenodd" clip-rule="evenodd" d="M143.152 289.618L159.72 299.275V324.921L143.152 315.24L143.152 289.618Z" fill="#303030"/>
<path fill-rule="evenodd" clip-rule="evenodd" d="M159.72 322.063L174.963 313.297V316.191L159.72 324.915V322.063Z" fill="#646464"/>
<path fill-rule="evenodd" clip-rule="evenodd" d="M159.72 299.227H160.714V324.411L159.72 324.915V299.227Z" fill="#646464"/>
<path fill-rule="evenodd" clip-rule="evenodd" d="M172.383 287.525L184.42 294.278L178.44 297.758L166.566 290.901L172.383 287.525Z" fill="white"/>
<path fill-rule="evenodd" clip-rule="evenodd" d="M184.959 282.8L194.414 288.217L188.567 291.998L179.127 286.611L184.959 282.8Z" fill="#696969"/>
<path fill-rule="evenodd" clip-rule="evenodd" d="M185.055 283.219V286.37L187.918 288.124V284.863L185.055 283.219Z" fill="#8D8E90"/>
<path fill-rule="evenodd" clip-rule="evenodd" d="M187.909 288.121L191.674 285.574V282.092L187.909 284.467V288.121Z" fill="#ABAEB1"/>
<path fill-rule="evenodd" clip-rule="evenodd" d="M177.949 260.843L201.421 274.344V291.07L177.949 277.674L177.949 260.843Z" fill="#ABAEB1"/>
<path fill-rule="evenodd" clip-rule="evenodd" d="M176.526 261.551L199.998 275.052V291.779L176.526 278.382L176.526 261.551Z" fill="black"/>
<path fill-rule="evenodd" clip-rule="evenodd" d="M177.242 262.991L199.284 275.633V289.373L177.242 276.826L177.242 262.991Z" fill="#3367A3"/>
<path fill-rule="evenodd" clip-rule="evenodd" d="M191.324 278.52C191.76 278.911 192.119 279.375 192.399 279.91C192.679 280.446 192.819 280.94 192.819 281.39C192.819 281.925 192.631 282.258 192.253 282.388C191.875 282.518 191.42 282.408 190.886 282.057L185.409 278.457C184.788 278.048 184.257 277.478 183.816 276.746C183.374 276.013 183.154 275.336 183.154 274.713C183.154 274.276 183.271 273.95 183.506 273.734C183.741 273.518 184.056 273.448 184.452 273.524C184.446 273.418 184.442 273.344 184.442 273.3C184.442 272.587 184.694 272.143 185.197 271.97C185.701 271.796 186.308 271.943 187.02 272.411C187.543 272.755 188.023 273.216 188.457 273.795C188.892 274.373 189.208 274.97 189.406 275.584C189.644 275.532 189.923 275.611 190.242 275.821C190.597 276.054 190.901 276.38 191.153 276.798C191.404 277.216 191.53 277.603 191.53 277.959C191.53 278.215 191.462 278.402 191.324 278.52ZM189.436 277.875C189.48 277.903 189.517 277.912 189.549 277.901C189.581 277.89 189.597 277.863 189.597 277.819C189.597 277.772 189.582 277.723 189.552 277.673L187.78 274.732C187.75 274.682 187.711 274.642 187.664 274.611C187.617 274.58 187.579 274.57 187.548 274.58L185.781 275.189C185.748 275.208 185.731 275.237 185.731 275.278C185.731 275.325 185.746 275.373 185.776 275.423C185.807 275.473 185.845 275.514 185.892 275.545L187.02 276.286V278.062C187.02 278.106 187.036 278.154 187.068 278.207C187.099 278.26 187.137 278.301 187.181 278.33L188.148 278.965C188.191 278.994 188.229 279.003 188.261 278.992C188.293 278.981 188.309 278.953 188.309 278.91V277.133L189.436 277.875Z" fill="white"/>
<path fill-rule="evenodd" clip-rule="evenodd" d="M176.529 261.556L177.894 260.773L201.426 274.346L200 275.052L176.529 261.556Z" fill="#DDDFDF"/>
<path fill-rule="evenodd" clip-rule="evenodd" d="M199.995 291.787L201.411 291.067V274.355L199.995 275.045V291.787Z" fill="#ABAEB1"/>
<path fill-rule="evenodd" clip-rule="evenodd" d="M210.673 313.476L214.489 315.721L205.409 321.13L201.473 318.857L210.673 313.476Z" fill="#DDDFDF"/>
<path fill-rule="evenodd" clip-rule="evenodd" d="M201.48 318.857L201.48 333.001L205.41 335.268V321.124L201.48 318.857Z" fill="#F1F1F1"/>
<path fill-rule="evenodd" clip-rule="evenodd" d="M201.971 320.946V322.555L204.461 324.183V322.574L201.971 320.946Z" fill="#6F6F6F"/>
<path fill-rule="evenodd" clip-rule="evenodd" d="M201.971 323.934V325.543L204.461 327.171V325.563L201.971 323.934Z" fill="#6F6F6F"/>
<path fill-rule="evenodd" clip-rule="evenodd" d="M201.971 326.922V328.531L204.461 330.159V328.551L201.971 326.922Z" fill="#6F6F6F"/>
<path fill-rule="evenodd" clip-rule="evenodd" d="M201.971 329.91V331.519L204.461 333.147V331.539L201.971 329.91Z" fill="#6F6F6F"/>
<path fill-rule="evenodd" clip-rule="evenodd" d="M205.387 321.116L214.486 315.729V329.855L205.387 335.28V321.116Z" fill="#CDCDCD"/>
<path fill-rule="evenodd" clip-rule="evenodd" d="M198.159 297.83V299.51L206.019 304.055V302.253L198.159 297.83Z" fill="#717171"/>
<path fill-rule="evenodd" clip-rule="evenodd" d="M206.019 302.265L213.202 298.386V300.079L206.019 304.055V302.265Z" fill="#E4E4E4"/>
<path fill-rule="evenodd" clip-rule="evenodd" d="M205.649 294.211L213.205 298.386L206.022 302.269L198.159 297.83L205.649 294.211Z" fill="#2B2B2B"/>
<path fill-rule="evenodd" clip-rule="evenodd" d="M204.598 295.064L211.061 298.805L208.313 300.355L201.732 296.508L204.598 295.064Z" fill="#ABAEB1"/>
<path fill-rule="evenodd" clip-rule="evenodd" d="M209.333 291.926L214.368 294.374V294.374C212.755 294.89 211.344 295.897 210.331 297.255L208.999 299.041L203.875 296.053L204.915 294.754C206.037 293.352 207.59 292.358 209.333 291.926V291.926Z" fill="white"/>
<path fill-rule="evenodd" clip-rule="evenodd" d="M186.045 297.019C186.077 296.999 186.116 296.998 186.149 297.016L187.791 297.9C187.974 297.999 187.981 298.259 187.804 298.367L185.574 299.73C185.251 299.927 184.847 299.933 184.52 299.745V299.745C183.836 299.354 183.823 298.373 184.495 297.963L186.045 297.019Z" fill="white"/>
</svg>
