<svg width="120" height="120" viewBox="0 0 120 120" fill="none" xmlns="http://www.w3.org/2000/svg">
<path fill-rule="evenodd" clip-rule="evenodd" d="M88.5194 41.5676H102.081V17.8967H88.5194V41.5676Z" fill="#55AA4F"/>
<path fill-rule="evenodd" clip-rule="evenodd" d="M83.3418 18.6353H107.259V5.81384H83.3418V18.6353Z" fill="#60D059"/>
<path fill-rule="evenodd" clip-rule="evenodd" d="M10.3562 64.7448V119.238H107.013V64.7448C88.0262 45.7584 77.4238 35.1569 58.6836 16.4175C39.945 35.4031 29.3427 46.0054 10.3562 64.7448" fill="#F7B443"/>
<path fill-rule="evenodd" clip-rule="evenodd" d="M50.0542 119.238H20.9586V90.6355C20.9586 82.4984 27.616 76.0881 35.5069 76.0881C43.643 76.0881 50.0542 82.7455 50.0542 90.6355V119.238Z" fill="#4D5051"/>
<path fill-rule="evenodd" clip-rule="evenodd" d="M58.6844 109.375H96.6565V76.087H58.6844V109.375Z" fill="#4D5051"/>
<path fill-rule="evenodd" clip-rule="evenodd" d="M62.6294 105.43H75.6979V80.033H62.6294V105.43Z" fill="#3A92F6"/>
<path fill-rule="evenodd" clip-rule="evenodd" d="M79.6429 105.43H92.7115V80.033H79.6429V105.43Z" fill="#3A92F6"/>
<path fill-rule="evenodd" clip-rule="evenodd" d="M116.136 54.6357L64.6022 3.10188C61.6427 0.142471 56.4651 0.142471 53.5066 3.10188L2.2198 54.6357C-1.78255 58.6372 -0.372549 66.6966 6.44892 67.8384C9.08363 68.2795 11.7572 67.2886 13.6463 65.3995L59.1775 19.8692L105.04 65.7313C107.999 68.6907 113.177 68.6907 116.136 65.7313C119.095 62.5257 119.095 57.5951 116.136 54.6357" fill="#60D059"/>
</svg>
