<svg width="140" height="117" viewBox="0 0 140 117" fill="none" xmlns="http://www.w3.org/2000/svg">
<path fill-rule="evenodd" clip-rule="evenodd" d="M57.7275 106.116H82.1919V93.2997H57.7275V106.116Z" fill="#3A92F6"/>
<path fill-rule="evenodd" clip-rule="evenodd" d="M98.4879 105.806H39.6487C38.7767 105.806 38.0636 106.52 38.0636 107.391V115.339C38.0636 116.212 38.7779 116.925 39.6487 116.925H98.4879V105.806Z" fill="#445ACA"/>
<path fill-rule="evenodd" clip-rule="evenodd" d="M138.336 0.185913H1.58533C0.713295 0.185913 0.000244141 0.90015 0.000244141 1.77218V92.0247C0.000244141 92.8991 0.713295 93.611 1.58533 93.611H38.0636V93.9349H138.334C138.679 93.9349 138.982 93.7996 139.243 93.611H139.921V43.9525V1.77218C139.921 0.90015 139.207 0.185913 138.336 0.185913" fill="#445ACA"/>
<path fill-rule="evenodd" clip-rule="evenodd" d="M6.96049 44.2753V16.0618H132.958V78.0758C132.958 78.6002 132.531 79.0274 132.007 79.0274H6.96049" fill="white"/>
<path fill-rule="evenodd" clip-rule="evenodd" d="M132.96 43.9521V15.7385H6.96191V77.7538C6.96191 78.277 7.38903 78.7041 7.91344 78.7041H132.96" fill="white"/>
<path fill-rule="evenodd" clip-rule="evenodd" d="M13.129 77.7541V15.7377H6.96191V77.7541C6.96191 78.2761 7.38903 78.7044 7.91344 78.7044H14.0806C13.5562 78.7044 13.129 78.2761 13.129 77.7541" fill="#D9EAFC"/>
<path fill-rule="evenodd" clip-rule="evenodd" d="M69.9612 81.8475C72.3258 81.8475 74.2419 83.7648 74.2419 86.1282C74.2419 88.494 72.3258 90.4113 69.9612 90.4113C67.5966 90.4113 65.6805 88.494 65.6805 86.1282C65.6805 83.7648 67.5966 81.8475 69.9612 81.8475" fill="#3A92F6"/>
<path fill-rule="evenodd" clip-rule="evenodd" d="M115.154 51.219H81.8823C81.3686 51.219 80.9498 51.639 80.9498 52.1515V70.6885C80.9498 71.2022 81.3686 71.621 81.8823 71.621H115.154V51.219Z" fill="#C3DDF4"/>
<path fill-rule="evenodd" clip-rule="evenodd" d="M115.154 23.6297C115.154 22.7743 114.454 22.0754 113.599 22.0754H26.3213C25.4659 22.0754 24.7671 22.7743 24.7671 23.6297V44.3082C24.7671 45.1612 25.4659 45.8612 26.3213 45.8612H115.154" fill="#C3DDF4"/>
<path fill-rule="evenodd" clip-rule="evenodd" d="M132.008 8.27429H7.91262C7.3894 8.27429 6.96228 8.70141 6.96228 9.22582V16.049H132.96V9.22582C132.96 8.70141 132.53 8.27429 132.008 8.27429" fill="#F7B443"/>
<path fill-rule="evenodd" clip-rule="evenodd" d="M53.3082 56.1398H27.146C25.8575 56.1398 24.8147 55.0969 24.8147 53.8084C24.8147 52.5211 25.8575 51.4771 27.146 51.4771H53.3082C54.5955 51.4771 55.6396 52.5211 55.6396 53.8084C55.6396 55.0969 54.5955 56.1398 53.3082 56.1398" fill="#60D059"/>
<path fill-rule="evenodd" clip-rule="evenodd" d="M53.3082 63.7507H27.146C25.8575 63.7507 24.8147 62.7078 24.8147 61.4194C24.8147 60.1321 25.8575 59.088 27.146 59.088H53.3082C54.5955 59.088 55.6396 60.1321 55.6396 61.4194C55.6396 62.7078 54.5955 63.7507 53.3082 63.7507" fill="#60D059"/>
<path fill-rule="evenodd" clip-rule="evenodd" d="M53.3082 71.363H27.146C25.8575 71.363 24.8147 70.319 24.8147 69.0317C24.8147 67.7432 25.8575 66.7003 27.146 66.7003H53.3082C54.5955 66.7003 55.6396 67.7432 55.6396 69.0317C55.6396 70.319 54.5955 71.363 53.3082 71.363" fill="#60D059"/>
<path fill-rule="evenodd" clip-rule="evenodd" d="M73.8403 56.1398H60.373C59.0857 56.1398 58.0428 55.0969 58.0428 53.8084C58.0428 52.5211 59.0857 51.4771 60.373 51.4771H73.8403C75.1276 51.4771 76.1716 52.5211 76.1716 53.8084C76.1716 55.0969 75.1276 56.1398 73.8403 56.1398" fill="#60D059"/>
<path fill-rule="evenodd" clip-rule="evenodd" d="M73.8403 63.7507H60.373C59.0857 63.7507 58.0428 62.7078 58.0428 61.4194C58.0428 60.1321 59.0857 59.088 60.373 59.088H73.8403C75.1276 59.088 76.1716 60.1321 76.1716 61.4194C76.1716 62.7078 75.1276 63.7507 73.8403 63.7507" fill="#60D059"/>
<path fill-rule="evenodd" clip-rule="evenodd" d="M73.8403 71.363H60.373C59.0857 71.363 58.0428 70.319 58.0428 69.0317C58.0428 67.7432 59.0857 66.7003 60.373 66.7003H73.8403C75.1276 66.7003 76.1716 67.7432 76.1716 69.0317C76.1716 70.319 75.1276 71.363 73.8403 71.363" fill="#60D059"/>
</svg>
