<svg width="130" height="129" viewBox="0 0 130 129" fill="none" xmlns="http://www.w3.org/2000/svg">
<path fill-rule="evenodd" clip-rule="evenodd" d="M93.079 42.909H102.759V37.839H93.079V42.909Z" fill="#3A92F6"/>
<path fill-rule="evenodd" clip-rule="evenodd" d="M109.206 42.7865H85.9274C85.5824 42.7865 85.3004 43.0685 85.3004 43.4145V46.5585C85.3004 46.9035 85.5824 47.1855 85.9274 47.1855H109.206V42.7865Z" fill="#445ACA"/>
<path fill-rule="evenodd" clip-rule="evenodd" d="M124.971 1.00037H70.8681C70.5231 1.00037 70.2411 1.28237 70.2411 1.62737V37.3354C70.2411 37.6804 70.5231 37.9624 70.8681 37.9624H85.3001V38.0904H124.971C125.107 38.0904 125.227 38.0364 125.33 37.9624H125.599V18.3154V1.62737C125.599 1.28237 125.316 1.00037 124.971 1.00037" fill="#445ACA"/>
<path fill-rule="evenodd" clip-rule="evenodd" d="M72.9945 18.4428V7.28076H122.845V31.8158C122.845 32.0228 122.676 32.1928 122.468 32.1928H72.9945" fill="white"/>
<path fill-rule="evenodd" clip-rule="evenodd" d="M122.844 18.3158V7.15283H72.9951V31.6888C72.9951 31.8958 73.1641 32.0648 73.3711 32.0648H122.844" fill="white"/>
<path fill-rule="evenodd" clip-rule="evenodd" d="M75.435 31.6888V7.15283H72.996V31.6888C72.996 31.8958 73.164 32.0648 73.372 32.0648H75.812C75.605 32.0648 75.435 31.8958 75.435 31.6888" fill="#D9EAFC"/>
<path fill-rule="evenodd" clip-rule="evenodd" d="M97.9203 33.3081C98.8563 33.3081 99.6133 34.0671 99.6133 35.0021C99.6133 35.9381 98.8563 36.6961 97.9203 36.6961C96.9843 36.6961 96.2263 35.9381 96.2263 35.0021C96.2263 34.0671 96.9843 33.3081 97.9203 33.3081" fill="#3A92F6"/>
<path fill-rule="evenodd" clip-rule="evenodd" d="M115.8 21.1908H102.636C102.433 21.1908 102.267 21.3568 102.267 21.5588V28.8938C102.267 29.0958 102.433 29.2618 102.636 29.2618H115.8V21.1908Z" fill="#C3DDF4"/>
<path fill-rule="evenodd" clip-rule="evenodd" d="M115.8 10.2749C115.8 9.93689 115.523 9.66089 115.185 9.66089H80.6542C80.3172 9.66089 80.0392 9.93689 80.0392 10.2749V18.4569C80.0392 18.7949 80.3172 19.0709 80.6542 19.0709H115.8" fill="#C3DDF4"/>
<path fill-rule="evenodd" clip-rule="evenodd" d="M122.468 4.19958H73.3712C73.1642 4.19958 72.9952 4.36958 72.9952 4.57658V7.27558H122.844V4.57658C122.844 4.36958 122.675 4.19958 122.468 4.19958" fill="#F7B443"/>
<path fill-rule="evenodd" clip-rule="evenodd" d="M91.3314 23.1371H80.9804C80.4714 23.1371 80.0584 22.7251 80.0584 22.2151C80.0584 21.7051 80.4714 21.2931 80.9804 21.2931H91.3314C91.8414 21.2931 92.2544 21.7051 92.2544 22.2151C92.2544 22.7251 91.8414 23.1371 91.3314 23.1371" fill="#60D059"/>
<path fill-rule="evenodd" clip-rule="evenodd" d="M91.3314 26.1488H80.9804C80.4714 26.1488 80.0584 25.7358 80.0584 25.2268C80.0584 24.7168 80.4714 24.3038 80.9804 24.3038H91.3314C91.8414 24.3038 92.2544 24.7168 92.2544 25.2268C92.2544 25.7358 91.8414 26.1488 91.3314 26.1488" fill="#60D059"/>
<path fill-rule="evenodd" clip-rule="evenodd" d="M91.3314 29.1606H80.9804C80.4714 29.1606 80.0584 28.7476 80.0584 28.2376C80.0584 27.7276 80.4714 27.3156 80.9804 27.3156H91.3314C91.8414 27.3156 92.2544 27.7276 92.2544 28.2376C92.2544 28.7476 91.8414 29.1606 91.3314 29.1606" fill="#60D059"/>
<path fill-rule="evenodd" clip-rule="evenodd" d="M99.4545 23.1371H94.1265C93.6175 23.1371 93.2045 22.7251 93.2045 22.2151C93.2045 21.7051 93.6175 21.2931 94.1265 21.2931H99.4545C99.9645 21.2931 100.377 21.7051 100.377 22.2151C100.377 22.7251 99.9645 23.1371 99.4545 23.1371" fill="#60D059"/>
<path fill-rule="evenodd" clip-rule="evenodd" d="M99.4545 26.1488H94.1265C93.6175 26.1488 93.2045 25.7358 93.2045 25.2268C93.2045 24.7168 93.6175 24.3038 94.1265 24.3038H99.4545C99.9645 24.3038 100.377 24.7168 100.377 25.2268C100.377 25.7358 99.9645 26.1488 99.4545 26.1488" fill="#60D059"/>
<path fill-rule="evenodd" clip-rule="evenodd" d="M99.4545 29.1606H94.1265C93.6175 29.1606 93.2045 28.7476 93.2045 28.2376C93.2045 27.7276 93.6175 27.3156 94.1265 27.3156H99.4545C99.9645 27.3156 100.377 27.7276 100.377 28.2376C100.377 28.7476 99.9645 29.1606 99.4545 29.1606" fill="#60D059"/>
<path fill-rule="evenodd" clip-rule="evenodd" d="M35.768 127.629C34.535 127.629 33.533 126.628 33.533 125.394V123.158C33.533 121.924 34.535 120.923 35.768 120.923C37.002 120.923 38.004 121.924 38.004 123.158V125.394C38.004 126.628 37.002 127.629 35.768 127.629" fill="#445ACA"/>
<path fill-rule="evenodd" clip-rule="evenodd" d="M62.5951 127.629C61.3621 127.629 60.3601 126.628 60.3601 125.394V123.158C60.3601 121.924 61.3621 120.923 62.5951 120.923C63.8291 120.923 64.8311 121.924 64.8311 123.158V125.394C64.8311 126.628 63.8291 127.629 62.5951 127.629" fill="#445ACA"/>
<path fill-rule="evenodd" clip-rule="evenodd" d="M84.952 81.682H125.192V59.327H84.952V81.682Z" fill="#4D5051"/>
<path fill-rule="evenodd" clip-rule="evenodd" d="M84.952 105.037H125.192V82.682H84.952V105.037Z" fill="#4D5051"/>
<path fill-rule="evenodd" clip-rule="evenodd" d="M84.952 128.394H125.192V106.038H84.952V128.394Z" fill="#4D5051"/>
<path fill-rule="evenodd" clip-rule="evenodd" d="M107.307 72.7397H102.836C101.602 72.7397 100.601 71.7377 100.601 70.5047C100.601 69.2697 101.602 68.2687 102.836 68.2687H107.307C108.543 68.2687 109.543 69.2697 109.543 70.5047C109.543 71.7387 108.543 72.7397 107.307 72.7397" fill="#F7B443"/>
<path fill-rule="evenodd" clip-rule="evenodd" d="M107.307 96.096H102.836C101.602 96.096 100.601 95.094 100.601 93.86C100.601 92.626 101.602 91.624 102.836 91.624H107.307C108.543 91.624 109.543 92.626 109.543 93.86C109.543 95.094 108.543 96.096 107.307 96.096" fill="#F7B443"/>
<path fill-rule="evenodd" clip-rule="evenodd" d="M107.307 119.452H102.836C101.602 119.452 100.601 118.45 100.601 117.217C100.601 115.982 101.602 114.981 102.836 114.981H107.307C108.543 114.981 109.543 115.982 109.543 117.217C109.543 118.45 108.543 119.452 107.307 119.452" fill="#F7B443"/>
<path fill-rule="evenodd" clip-rule="evenodd" d="M4.46997 128.394H13.412V58.326H4.46997V128.394Z" fill="#4D5051"/>
<path fill-rule="evenodd" clip-rule="evenodd" d="M31.297 123.159H67.067V116.452H31.297V123.159Z" fill="#9B9C9D"/>
<path fill-rule="evenodd" clip-rule="evenodd" d="M49.182 107.509C47.948 107.509 46.947 106.507 46.947 105.274V71.7392C46.947 70.5062 47.948 69.5042 49.182 69.5042C50.415 69.5042 51.417 70.5062 51.417 71.7392V105.274C51.417 106.507 50.416 107.509 49.182 107.509" fill="#9B9C9D"/>
<path fill-rule="evenodd" clip-rule="evenodd" d="M71.5385 87.389H26.8265C26.8265 82.451 30.8295 78.447 35.7675 78.447H62.5955C67.5345 78.447 71.5385 82.451 71.5385 87.389" fill="#60D059"/>
<path fill-rule="evenodd" clip-rule="evenodd" d="M74.1625 49.3842L72.9955 58.3252H129.663V49.3842H74.1625Z" fill="#4D5051"/>
<path fill-rule="evenodd" clip-rule="evenodd" d="M24.5824 49.3842H0.000427246V58.3252H25.7494L24.5824 49.3842Z" fill="#4D5051"/>
<path fill-rule="evenodd" clip-rule="evenodd" d="M62.2416 71.7396H36.5036C30.0836 71.7396 24.6576 66.9776 23.8276 60.6106L19.8736 30.2856C18.8746 22.6356 24.8316 15.8496 32.5466 15.8496H66.1966C73.9146 15.8496 79.8696 22.6356 78.8726 30.2856L74.9186 60.6106C74.0866 66.9776 68.6626 71.7396 62.2416 71.7396" fill="#60D059"/>
<path fill-rule="evenodd" clip-rule="evenodd" d="M55.8891 116.452H42.4751V109.736C42.4751 107.272 44.4741 105.274 46.9381 105.274H51.4261C53.8901 105.274 55.8891 107.272 55.8891 109.736V116.452Z" fill="#4D5051"/>
</svg>
