<svg width="148" height="120" viewBox="0 0 148 120" fill="none" xmlns="http://www.w3.org/2000/svg">
<path fill-rule="evenodd" clip-rule="evenodd" d="M58.3872 108.34H83.1312V95.3774H58.3872V108.34Z" fill="#3A92F6"/>
<path fill-rule="evenodd" clip-rule="evenodd" d="M99.6135 108.026H40.1019C39.2199 108.026 38.4987 108.749 38.4987 109.63V117.668C38.4987 118.552 39.2211 119.273 40.1019 119.273H99.6135V108.026Z" fill="#445ACA"/>
<path fill-rule="evenodd" clip-rule="evenodd" d="M139.917 1.20007H1.60344C0.721444 1.20007 0.000244141 1.92247 0.000244141 2.80327V94.0885C0.000244141 94.9717 0.721444 95.6929 1.60344 95.6929H38.4986V96.0193H139.915C140.263 96.0193 140.571 95.8837 140.835 95.6929H141.52V45.4657V2.80327C141.52 1.92247 140.797 1.20007 139.917 1.20007" fill="#445ACA"/>
<path fill-rule="evenodd" clip-rule="evenodd" d="M7.04004 45.7922V17.2562H134.478V79.9802C134.478 80.5094 134.046 80.9426 133.515 80.9426H7.04004" fill="white"/>
<path fill-rule="evenodd" clip-rule="evenodd" d="M134.479 45.4658V16.9298H7.04147V79.6538C7.04147 80.183 7.47347 80.615 8.00387 80.615H134.479" fill="white"/>
<path fill-rule="evenodd" clip-rule="evenodd" d="M13.2791 79.6542V16.929H7.04147V79.6542C7.04147 80.1822 7.47347 80.6154 8.00387 80.6154H14.2415C13.7111 80.6154 13.2791 80.1822 13.2791 79.6542" fill="#D9EAFC"/>
<path fill-rule="evenodd" clip-rule="evenodd" d="M70.7608 83.7944C73.1524 83.7944 75.0904 85.7336 75.0904 88.124C75.0904 90.5168 73.1524 92.456 70.7608 92.456C68.3692 92.456 66.4312 90.5168 66.4312 88.124C66.4312 85.7336 68.3692 83.7944 70.7608 83.7944" fill="#3A92F6"/>
<path fill-rule="evenodd" clip-rule="evenodd" d="M133.517 9.37976H8.00304C7.47384 9.37976 7.04184 9.81296 7.04184 10.3422V17.2446H134.479V10.3422C134.479 9.81296 134.045 9.37976 133.517 9.37976" fill="#F7B443"/>
<path fill-rule="evenodd" clip-rule="evenodd" d="M105.861 51.8837H79.3996C78.0976 51.8837 77.0416 50.8289 77.0416 49.5257C77.0416 48.2237 78.0976 47.1677 79.3996 47.1677H105.861C107.164 47.1677 108.219 48.2237 108.219 49.5257C108.219 50.8289 107.164 51.8837 105.861 51.8837" fill="#60D059"/>
<path fill-rule="evenodd" clip-rule="evenodd" d="M126.627 39.5479H105.86H100.166H79.4003C78.0983 39.5479 77.0423 40.6027 77.0423 41.9059C77.0423 43.2079 78.0983 44.2639 79.4003 44.2639H100.166H105.86H126.627C127.931 44.2639 128.985 43.2079 128.985 41.9059C128.985 40.6027 127.931 39.5479 126.627 39.5479" fill="#3A92F6"/>
<path fill-rule="evenodd" clip-rule="evenodd" d="M126.627 31.0477H105.86H100.166H79.4003C78.0983 31.0477 77.0423 32.1025 77.0423 33.4057C77.0423 34.7077 78.0983 35.7637 79.4003 35.7637H100.166H105.86H126.627C127.931 35.7637 128.985 34.7077 128.985 33.4057C128.985 32.1025 127.931 31.0477 126.627 31.0477" fill="#3A92F6"/>
<path fill-rule="evenodd" clip-rule="evenodd" d="M105.861 59.3819H79.3996C78.0976 59.3819 77.0416 58.3259 77.0416 57.0239C77.0416 55.7219 78.0976 54.6659 79.3996 54.6659H105.861C107.164 54.6659 108.219 55.7219 108.219 57.0239C108.219 58.3259 107.164 59.3819 105.861 59.3819" fill="#60D059"/>
<path fill-rule="evenodd" clip-rule="evenodd" d="M105.861 67.08H79.3996C78.0976 67.08 77.0416 66.024 77.0416 64.722C77.0416 63.42 78.0976 62.364 79.3996 62.364H105.861C107.164 62.364 108.219 63.42 108.219 64.722C108.219 66.024 107.164 67.08 105.861 67.08" fill="#60D059"/>
<path fill-rule="evenodd" clip-rule="evenodd" d="M126.627 51.8837H113.006C111.704 51.8837 110.649 50.8289 110.649 49.5257C110.649 48.2237 111.704 47.1677 113.006 47.1677H126.627C127.931 47.1677 128.985 48.2237 128.985 49.5257C128.985 50.8289 127.931 51.8837 126.627 51.8837" fill="#60D059"/>
<path fill-rule="evenodd" clip-rule="evenodd" d="M126.627 59.5822H113.006C111.704 59.5822 110.649 58.5262 110.649 57.2242C110.649 55.921 111.704 54.8662 113.006 54.8662H126.627C127.931 54.8662 128.985 55.921 128.985 57.2242C128.985 58.5262 127.931 59.5822 126.627 59.5822" fill="#60D059"/>
<path fill-rule="evenodd" clip-rule="evenodd" d="M126.627 67.08H113.006C111.704 67.08 110.649 66.024 110.649 64.722C110.649 63.42 111.704 62.364 113.006 62.364H126.627C127.931 62.364 128.985 63.42 128.985 64.722C128.985 66.024 127.931 67.08 126.627 67.08" fill="#60D059"/>
<path fill-rule="evenodd" clip-rule="evenodd" d="M63.8502 58.1268C61.7262 56.0028 58.6218 55.4508 55.983 56.4636L47.085 47.5656L45.2958 49.3536C45.2466 49.4028 45.2226 49.4736 45.2286 49.5432C45.2826 50.0676 45.1398 50.5848 44.8254 51C44.7666 51.0768 44.7618 51.1824 44.8134 51.264C45.309 52.0512 45.2562 53.0088 44.6934 53.622L51.7602 60.6876C50.7462 63.324 51.2994 66.4308 53.4234 68.5536C55.2606 70.392 57.861 71.1216 60.3786 70.5048C60.447 70.4892 60.507 70.4532 60.555 70.4064C60.5994 70.362 60.6318 70.3056 60.6498 70.2432C60.6858 70.1124 60.6498 69.9732 60.555 69.8784L56.0154 65.34L60.6342 60.72L65.175 65.2584C65.2698 65.3532 65.409 65.3916 65.5386 65.3544C65.601 65.3376 65.6574 65.3028 65.7018 65.2584C65.7498 65.2116 65.7834 65.1516 65.8002 65.0832C66.4182 62.5644 65.6874 59.964 63.8502 58.1268" fill="#F7B443"/>
<path fill-rule="evenodd" clip-rule="evenodd" d="M40.4315 47.6895C40.8299 47.6895 41.2259 47.8071 41.5775 48.0279C41.6147 48.0519 41.6579 48.0627 41.7011 48.0627C41.7515 48.0627 41.8007 48.0471 41.8427 48.0159C42.2003 47.7435 42.6287 47.6007 43.0835 47.6007C43.1555 47.6007 43.2275 47.6043 43.2995 47.6127C43.3067 47.6127 43.3151 47.6139 43.3223 47.6139C43.3847 47.6139 43.4435 47.5887 43.4879 47.5443L45.2759 45.7563L36.3779 36.8583C37.3919 34.2207 36.8387 31.1139 34.7147 28.9911C32.8763 27.1539 30.2759 26.4231 27.7583 27.0399C27.6911 27.0567 27.6311 27.0915 27.5831 27.1395C27.5387 27.1827 27.5051 27.2391 27.4871 27.3027C27.4511 27.4323 27.4883 27.5715 27.5831 27.6663L32.1215 32.2059L27.5027 36.8259L22.9631 32.2863C22.8683 32.1903 22.7291 32.1543 22.5995 32.1903C22.5359 32.2083 22.4795 32.2407 22.4363 32.2863C22.3883 32.3343 22.3535 32.3931 22.3367 32.4615C21.7199 34.9791 22.4507 37.5807 24.2879 39.4179C26.4107 41.5407 29.5163 42.0939 32.1551 41.0811L39.2207 48.1467C39.5423 47.8527 39.9683 47.6895 40.4315 47.6895" fill="#F7B443"/>
<path fill-rule="evenodd" clip-rule="evenodd" d="M38.458 51.8643L40.9768 54.3831C41.1856 54.5919 41.3404 54.8355 41.4424 55.0947L42.5332 54.0039C42.2776 53.8911 42.0364 53.7315 41.8336 53.5263L39.3148 51.0087C39.106 50.7987 38.9464 50.5599 38.836 50.3091L37.7452 51.3987C38.0104 51.5031 38.2516 51.6591 38.458 51.8643" fill="#445ACA"/>
<path fill-rule="evenodd" clip-rule="evenodd" d="M64.5756 29.5723L63.2688 28.2655C63.1236 28.1203 62.8536 28.0747 62.6688 28.1659L59.7576 29.5855C59.574 29.6755 59.3496 29.8999 59.2584 30.0847L57.9648 32.7379L43.3224 47.3803C42.6768 47.3131 42.012 47.5183 41.5128 47.9887C41.6808 48.0871 41.838 48.2047 41.9772 48.3451L44.4972 50.8627C44.6388 51.0055 44.7564 51.1615 44.8524 51.3259C45.324 50.8267 45.528 50.1631 45.4608 49.5187L60.102 34.8763L62.7564 33.5815C62.9412 33.4927 63.1656 33.2671 63.2544 33.0835L64.6764 30.1723C64.7652 29.9875 64.7196 29.7175 64.5756 29.5723" fill="#445ACA"/>
<path fill-rule="evenodd" clip-rule="evenodd" d="M44.8096 53.8396C43.9864 54.6628 42.574 54.5956 41.6692 53.6908L39.1504 51.172C38.2456 50.2672 38.1796 48.8548 39.0016 48.0316C39.8248 47.2096 41.2372 47.2756 42.142 48.1804L44.6608 50.6992C45.5656 51.604 45.6328 53.0164 44.8096 53.8396" fill="#293D7C"/>
<path fill-rule="evenodd" clip-rule="evenodd" d="M30.351 68.2987C29.4462 69.2035 27.9666 69.2035 27.0618 68.2987L24.543 65.7799C23.6382 64.8751 23.6382 63.3955 24.543 62.4907L35.3334 51.7003C36.237 50.7955 37.7178 50.7955 38.6226 51.7003L41.1414 54.2191C42.045 55.1239 42.045 56.6035 41.1414 57.5083L30.351 68.2987Z" fill="#293D7C"/>
<path fill-rule="evenodd" clip-rule="evenodd" d="M28.4607 65.7803C27.5559 64.8755 27.5559 63.3959 28.4607 62.4911L38.9355 52.0139L38.6223 51.7007C37.7175 50.7959 36.2367 50.7959 35.3343 51.7007L24.5427 62.4899C23.6379 63.3959 23.6379 64.8743 24.5427 65.7791L27.0615 68.2979C27.9663 69.2039 29.4459 69.2039 30.3507 68.2979L30.6651 67.9847L28.4607 65.7803Z" fill="#1A2B63"/>
<path fill-rule="evenodd" clip-rule="evenodd" d="M123.899 106.606C123.899 107.164 124.357 107.621 124.915 107.621H130.815C131.373 107.621 131.829 107.164 131.829 106.606V103.39C131.829 102.832 132.261 102.228 132.789 102.047L134.302 101.428C134.804 101.182 135.538 101.304 135.934 101.698L138.232 103.979C138.627 104.372 139.275 104.372 139.673 103.979L143.839 99.8428C144.235 99.4492 144.235 98.806 143.839 98.4136L141.542 96.1324C141.145 95.74 141.025 95.0092 141.272 94.5088L141.891 93.0184C142.075 92.4904 142.681 92.0596 143.239 92.0596H146.494C147.053 92.0596 147.509 91.6024 147.509 91.0444V85.2052C147.509 84.646 147.053 84.19 146.494 84.19H143.239C142.679 84.19 142.075 83.7592 141.891 83.2312L141.272 81.7408C141.025 81.2404 141.145 80.5096 141.542 80.1172L143.839 77.836C144.235 77.4436 144.235 76.8004 143.839 76.4068L139.673 72.2716C139.275 71.8792 138.627 71.8792 138.232 72.2716L135.934 74.5516C135.537 74.944 134.804 75.0664 134.301 74.8228L132.789 74.2024C132.261 74.0224 131.829 73.4176 131.829 72.8596V69.6436C131.829 69.0856 131.373 68.6296 130.815 68.6296H124.915C124.355 68.6296 123.899 69.0856 123.899 69.6436V72.8596C123.899 73.4176 123.467 74.0224 122.939 74.2024L121.427 74.8228C120.926 75.0664 120.191 74.9452 119.795 74.5516L117.497 72.2716C117.1 71.8792 116.453 71.8792 116.056 72.2716L111.889 76.4068C111.493 76.8004 111.493 77.4424 111.889 77.836L114.187 80.1172C114.583 80.5096 114.705 81.2404 114.458 81.7408L113.837 83.2312C113.654 83.7592 113.048 84.19 112.49 84.19H109.233C108.675 84.19 108.219 84.646 108.219 85.2052V91.0444C108.219 91.6036 108.675 92.0596 109.233 92.0596H112.49C113.048 92.0596 113.654 92.4904 113.837 93.0184L114.458 94.5088C114.705 95.0092 114.584 95.74 114.188 96.1324L111.889 98.4136C111.493 98.806 111.493 99.4492 111.889 99.8428L116.056 103.979C116.452 104.372 117.1 104.372 117.497 103.978L119.794 101.698C120.19 101.304 120.925 101.182 121.426 101.428L122.939 102.047C123.467 102.228 123.899 102.832 123.899 103.39V106.606Z" fill="#FF9518"/>
<path fill-rule="evenodd" clip-rule="evenodd" d="M127.864 97.5077C122.641 97.5077 118.409 93.3077 118.409 88.1261C118.41 82.9421 122.641 78.7421 127.864 78.7421C133.086 78.7421 137.32 82.9433 137.32 88.1261C137.32 93.3077 133.086 97.5077 127.864 97.5077" fill="#FFAF10"/>
<path fill-rule="evenodd" clip-rule="evenodd" d="M127.864 80.2647C123.49 80.2647 119.933 83.7903 119.932 88.1259C119.932 92.4603 123.49 95.9871 127.864 95.9871C132.239 95.9871 135.797 92.4603 135.797 88.1259C135.797 83.7903 132.239 80.2647 127.864 80.2647M127.864 99.0303C121.812 99.0303 116.889 94.1391 116.889 88.1259C116.889 82.1127 121.812 77.2203 127.864 77.2203C133.917 77.2203 138.841 82.1127 138.841 88.1259C138.841 94.1391 133.917 99.0303 127.864 99.0303" fill="#DB722C"/>
<path fill-rule="evenodd" clip-rule="evenodd" d="M127.864 92.0924C125.657 92.0924 123.868 90.3164 123.868 88.1252C123.868 85.934 125.657 84.158 127.864 84.158C130.073 84.158 131.861 85.934 131.861 88.124C131.861 90.3164 130.073 92.0924 127.864 92.0924" fill="#FFAF10"/>
<path fill-rule="evenodd" clip-rule="evenodd" d="M127.864 85.681C126.499 85.681 125.389 86.7766 125.389 88.1254C125.389 89.4718 126.499 90.5698 127.864 90.5698C129.229 90.5698 130.339 89.4718 130.339 88.1242C130.339 86.7778 129.229 85.681 127.864 85.681M127.864 93.613C124.822 93.613 122.345 91.1518 122.345 88.1254C122.345 85.099 124.822 82.6378 127.864 82.6378C130.907 82.6378 133.384 85.099 133.384 88.1254C133.383 91.1518 130.907 93.613 127.864 93.613" fill="#DB722C"/>
</svg>
