<svg width="30" height="30" viewBox="0 0 30 30" fill="none" xmlns="http://www.w3.org/2000/svg">
<path fill-rule="evenodd" clip-rule="evenodd" d="M15.447 13.9716C15.7656 13.4796 16.335 12.7788 17.61 12.7788C19.1898 12.7788 20.3748 13.8114 20.376 16.029V20.172H20.3754H17.9742V16.3068C17.9742 15.3348 17.6268 14.6724 16.758 14.6724C16.0944 14.6724 15.6996 15.1194 15.5256 15.5514C15.4608 15.7056 15.447 15.9222 15.447 16.1376V20.1738H13.0458C13.0458 20.1738 13.077 13.626 13.0458 12.9492H15.447V13.9716ZM15.4302 13.9968H15.4452V13.9722C15.4433 13.9774 15.4398 13.9824 15.4363 13.9875C15.4342 13.9905 15.432 13.9936 15.4302 13.9968Z" fill="white"/>
<rect x="9.31384" y="12.9492" width="2.4012" height="7.2246" fill="white"/>
<path fill-rule="evenodd" clip-rule="evenodd" d="M0 14.8956C0 6.6822 6.6822 0 14.8956 0C23.1096 0 29.7912 6.6822 29.7912 14.8956C29.7912 23.1084 23.1084 29.7912 14.8956 29.7912C6.6822 29.7912 0 23.1084 0 14.8956ZM21.6192 22.779C22.269 22.779 22.7946 22.2666 22.7946 21.633V7.9266C22.7946 7.2942 22.2684 6.7806 21.6192 6.7806H8.0706C7.4226 6.7806 6.8964 7.2936 6.8964 7.9266V21.633C6.8964 22.2666 7.4226 22.779 8.0706 22.779H21.6192Z" fill="white"/>
<path d="M10.5306 9.46631C9.70984 9.46631 9.17224 10.0051 9.17224 10.7143C9.17224 11.4073 9.69364 11.9623 10.4988 11.9623H10.5144C11.352 11.9623 11.8734 11.4073 11.8734 10.7143C11.8572 10.0057 11.3526 9.46631 10.5306 9.46631Z" fill="white"/>
</svg>
