<svg width="454" height="379" viewBox="0 0 454 379" fill="none" xmlns="http://www.w3.org/2000/svg">
<g filter="url(#filter0_d)">
<path fill-rule="evenodd" clip-rule="evenodd" d="M2 284.772L157.699 374.375L451.997 204.014L295.851 114.493L2 284.772Z" fill="#F7E1BA"/>
<path fill-rule="evenodd" clip-rule="evenodd" d="M296.234 0.0828857V114.535L451.993 204.013V90.1032L296.234 0.0828857Z" fill="#EAEAEA"/>
<path fill-rule="evenodd" clip-rule="evenodd" d="M321.44 14.5803V129.033L426.176 189.129V75.2193L321.44 14.5803Z" fill="#FEB415"/>
<path fill-rule="evenodd" clip-rule="evenodd" d="M451.995 90.1064V204.016L296.186 114.698L2 284.781V169.705L296.186 0L451.995 90.1064Z" fill="#B4E1C1"/>
<mask id="mask0" mask-type="alpha" maskUnits="userSpaceOnUse" x="2" y="0" width="450" height="285">
<path fill-rule="evenodd" clip-rule="evenodd" d="M451.995 90.1064V204.016L296.186 114.698L2 284.781V169.705L296.186 0L451.995 90.1064Z" fill="white"/>
</mask>
<g mask="url(#mask0)">
<path d="M151.779 30.7592V199.153L229.982 191.411V22.5331L151.779 30.7592Z" fill="#78B486"/>
<path d="M331.381 17.8939L331.381 191.228L416.875 199.153V26.0527L331.381 17.8939Z" fill="#78B486"/>
</g>
<path d="M349.938 51.3811L349.938 91.8237L396.551 121.094V80.7063L349.938 51.3811Z" fill="#001E14"/>
<path d="M352.589 57.6583L352.589 89.7745L393.287 115.185V83.1117L352.589 57.6583Z" fill="white"/>
<mask id="mask1" mask-type="alpha" maskUnits="userSpaceOnUse" x="352" y="57" width="42" height="59">
<path d="M352.589 57.6583L352.589 89.7745L393.287 115.185V83.1117L352.589 57.6583Z" fill="white"/>
</mask>
<g mask="url(#mask1)">
<path d="M352.257 78.3767C359.04 77.3676 366.06 80.7612 373.316 88.5575C380.572 96.3539 388.065 98.0082 393.902 95.7658V98.4327V116.158L350.601 86.325L352.257 78.3767Z" fill="#435ACA"/>
<path d="M361.204 76.1422C363.033 77.3238 364.516 76.3326 364.516 73.9282C364.516 71.5238 363.033 68.6167 361.204 67.4351C359.374 66.2534 357.891 67.2447 357.891 69.6491C357.891 72.0535 359.374 74.9605 361.204 76.1422Z" fill="#FEB415"/>
<path d="M352.92 81.6904C359.703 80.6813 366.723 84.0749 373.979 91.8713C381.235 99.6676 387.781 102.445 393.618 100.202L394.564 101.746V119.472L351.264 89.6387L352.92 81.6904Z" fill="#3A92F8"/>
</g>
<path d="M141.789 219.048C141.775 219.07 141.77 219.098 141.777 219.124C141.784 219.15 141.801 219.172 141.824 219.185C142.589 219.614 143.885 218.985 144.013 218.921L144.722 219.365C144.744 219.378 144.77 219.383 144.796 219.377C144.821 219.371 144.843 219.355 144.857 219.333L145.124 218.906C145.138 218.883 145.142 218.856 145.136 218.832C145.131 218.807 145.116 218.785 145.093 218.771L144.384 218.328C144.391 218.031 144.353 217.67 144.282 217.361C144.196 216.989 144.018 216.493 143.661 216.245C143.639 216.23 143.612 216.224 143.586 216.23C143.559 216.235 143.536 216.251 143.522 216.274L141.789 219.048Z" fill="#272727"/>
<path d="M142.166 218.084C142.181 218.061 142.184 218.034 142.179 218.01C142.173 217.985 142.158 217.963 142.135 217.949L141.256 217.4C141.194 217.361 141.12 217.348 141.049 217.365C140.977 217.381 140.916 217.425 140.878 217.487C140.839 217.549 140.826 217.623 140.843 217.694C140.859 217.766 140.903 217.827 140.965 217.866L141.844 218.415C141.89 218.444 141.95 218.43 141.979 218.384L142.166 218.084Z" fill="#272727"/>
<path d="M141.727 216.127C141.689 216.189 141.676 216.263 141.693 216.335C141.709 216.406 141.753 216.467 141.815 216.506L142.694 217.055C142.716 217.069 142.742 217.073 142.768 217.067C142.793 217.062 142.815 217.046 142.829 217.024L143.016 216.724C143.03 216.701 143.034 216.675 143.028 216.65C143.023 216.626 143.008 216.603 142.985 216.589L142.106 216.04C141.977 215.959 141.808 215.999 141.727 216.127Z" fill="#272727"/>
<path d="M164.09 208.439C164.107 208.46 164.131 208.474 164.158 208.477C164.185 208.479 164.211 208.471 164.232 208.453C164.896 207.881 164.749 206.449 164.732 206.307L165.391 205.792C165.412 205.776 165.425 205.752 165.428 205.726C165.431 205.701 165.424 205.674 165.408 205.654L165.098 205.257C165.081 205.236 165.057 205.223 165.032 205.22C165.008 205.217 164.981 205.223 164.96 205.24L164.301 205.755C164.025 205.646 163.673 205.559 163.357 205.52C162.979 205.473 162.453 205.471 162.097 205.721C162.075 205.737 162.061 205.761 162.057 205.787C162.053 205.814 162.06 205.841 162.077 205.862L164.09 208.439Z" fill="#272727"/>
<path d="M163.314 207.755C163.297 207.734 163.273 207.721 163.248 207.718C163.223 207.715 163.197 207.722 163.176 207.738L162.359 208.376C162.301 208.421 162.265 208.486 162.256 208.559C162.247 208.632 162.267 208.704 162.312 208.762C162.357 208.82 162.422 208.856 162.495 208.865C162.568 208.874 162.64 208.854 162.698 208.809L163.514 208.171C163.557 208.138 163.565 208.076 163.531 208.033L163.314 207.755Z" fill="#272727"/>
<path d="M161.325 207.498C161.37 207.556 161.435 207.593 161.508 207.602C161.581 207.611 161.653 207.591 161.71 207.546L162.527 206.908C162.548 206.892 162.561 206.868 162.564 206.842C162.567 206.816 162.56 206.79 162.544 206.77L162.327 206.492C162.31 206.47 162.286 206.458 162.261 206.454C162.236 206.451 162.21 206.458 162.189 206.475L161.372 207.113C161.253 207.206 161.231 207.379 161.325 207.498Z" fill="#272727"/>
<path fill-rule="evenodd" clip-rule="evenodd" d="M250.71 193.558L327.31 236.631L289.258 258.827L213.689 215.093L250.71 193.558Z" fill="#D5C5A3"/>
<path fill-rule="evenodd" clip-rule="evenodd" d="M201.153 191.863L206.786 194.514L197.508 199.816L190.218 196.974L201.153 191.863Z" fill="#D5C5A3"/>
<path fill-rule="evenodd" clip-rule="evenodd" d="M193.532 195.177V197.412L197.508 199.816V197.417L193.532 195.177Z" fill="#F1F1F1"/>
<path fill-rule="evenodd" clip-rule="evenodd" d="M197.508 197.356L207.067 192.194V194.447L197.508 199.739V197.356Z" fill="#CDCDCD"/>
<path fill-rule="evenodd" clip-rule="evenodd" d="M203.499 190.36L207.067 192.329L197.508 197.496L193.532 195.177L203.499 190.36Z" fill="#DDDFDF"/>
<path d="M199.496 198.159C199.862 198.159 200.159 197.862 200.159 197.496C200.159 197.13 199.862 196.834 199.496 196.834C199.13 196.834 198.834 197.13 198.834 197.496C198.834 197.862 199.13 198.159 199.496 198.159Z" fill="#272727"/>
<path d="M204.798 195.508C205.164 195.508 205.461 195.211 205.461 194.845C205.461 194.479 205.164 194.183 204.798 194.183C204.432 194.183 204.135 194.479 204.135 194.845C204.135 195.211 204.432 195.508 204.798 195.508Z" fill="#272727"/>
<rect x="236.61" y="168.999" width="0.66275" height="39.7644" rx="0.331375" fill="#272727"/>
<rect x="241.249" y="207.769" width="92.1208" height="0.662739" rx="0.33137" transform="rotate(-30 241.249 207.769)" fill="#272727"/>
<path d="M199.885 198.042C199.618 197.963 199.58 197.601 199.824 197.468V197.468C199.898 197.428 199.984 197.419 200.064 197.443L236.991 208.578C237.211 208.644 237.237 208.946 237.031 209.049V209.049C236.973 209.078 236.907 209.084 236.845 209.065L199.885 198.042Z" fill="#272727"/>
<path d="M204.714 195.184C204.447 195.088 204.418 194.721 204.668 194.585V194.585C204.751 194.54 204.849 194.532 204.938 194.565L241.655 207.887C241.877 207.967 241.894 208.274 241.683 208.38V208.38C241.617 208.413 241.541 208.417 241.472 208.393L204.714 195.184Z" fill="#272727"/>
<path fill-rule="evenodd" clip-rule="evenodd" d="M228.696 184.191L231.512 185.99L228.696 187.69L225.877 185.941L228.696 184.191Z" fill="#B4B6B6"/>
<path fill-rule="evenodd" clip-rule="evenodd" d="M225.877 185.942V214.046L228.693 215.786V187.689L225.877 185.942Z" fill="#9A9A9B"/>
<path fill-rule="evenodd" clip-rule="evenodd" d="M228.689 187.678V215.786L231.506 214.094V185.995L228.689 187.678Z" fill="#7A7B7B"/>
<path fill-rule="evenodd" clip-rule="evenodd" d="M288.699 218.85L291.514 220.649L288.699 222.35L285.879 220.6L288.699 218.85Z" fill="#B4B6B6"/>
<path fill-rule="evenodd" clip-rule="evenodd" d="M285.879 220.602V248.706L288.695 250.446V222.349L285.879 220.602Z" fill="#9A9A9B"/>
<path fill-rule="evenodd" clip-rule="evenodd" d="M288.691 222.338V250.446L291.508 248.754V220.655L288.691 222.338Z" fill="#7A7B7B"/>
<path fill-rule="evenodd" clip-rule="evenodd" d="M310.262 206.673L313.078 208.472L310.262 210.173L307.442 208.423L310.262 206.673Z" fill="#B4B6B6"/>
<path fill-rule="evenodd" clip-rule="evenodd" d="M307.442 208.424V236.528L310.259 238.268V210.171L307.442 208.424Z" fill="#9A9A9B"/>
<path fill-rule="evenodd" clip-rule="evenodd" d="M310.255 210.16V238.268L313.071 236.576V208.477L310.255 210.16Z" fill="#7A7B7B"/>
<path fill-rule="evenodd" clip-rule="evenodd" d="M249.772 165.455L326.372 208.528L288.321 230.725L212.751 186.99L249.772 165.455Z" fill="#F6F6F6"/>
<path fill-rule="evenodd" clip-rule="evenodd" d="M249.772 161.708L326.372 204.781L288.321 226.978L212.751 183.243L249.772 161.708Z" fill="#CC9181"/>
<path fill-rule="evenodd" clip-rule="evenodd" d="M212.751 183.254L288.309 226.956V230.722L212.751 186.988L212.751 183.254Z" fill="#350100"/>
<path fill-rule="evenodd" clip-rule="evenodd" d="M288.309 226.95L326.377 204.794V208.538L288.309 230.73V226.95Z" fill="#99614A"/>
<rect width="7.29014" height="0.662739" rx="0.331369" transform="matrix(0.866026 0.499999 -0.500001 0.866025 236.941 168.999)" fill="#272727"/>
<path fill-rule="evenodd" clip-rule="evenodd" d="M256.943 192.194L272.961 201.18L265.004 205.811L249.202 196.687L256.943 192.194Z" fill="white"/>
<path fill-rule="evenodd" clip-rule="evenodd" d="M275.124 204.828C275.166 204.802 275.219 204.801 275.262 204.824L277.448 206.001C277.691 206.132 277.701 206.478 277.465 206.622L274.497 208.436C274.068 208.698 273.53 208.706 273.094 208.456V208.456C272.185 207.935 272.167 206.63 273.062 206.085L275.124 204.828Z" fill="white"/>
<rect x="180.94" y="142.489" width="0.662735" height="53.0191" rx="0.331367" fill="#272727"/>
<path fill-rule="evenodd" clip-rule="evenodd" d="M273.679 185.906L286.261 193.115L278.48 198.147L265.918 190.978L273.679 185.906Z" fill="#696969"/>
<path fill-rule="evenodd" clip-rule="evenodd" d="M273.807 186.464V190.657L277.616 192.991V188.651L273.807 186.464Z" fill="#8D8E90"/>
<path fill-rule="evenodd" clip-rule="evenodd" d="M277.605 192.988L282.614 189.598V184.963L277.605 188.125V192.988Z" fill="#ABAEB1"/>
<path fill-rule="evenodd" clip-rule="evenodd" d="M264.35 156.686L295.586 174.653V196.912L264.35 179.084L264.35 156.686Z" fill="#ABAEB1"/>
<path fill-rule="evenodd" clip-rule="evenodd" d="M262.457 157.629L293.693 175.595V197.854L262.457 180.027L262.457 157.629Z" fill="black"/>
<path fill-rule="evenodd" clip-rule="evenodd" d="M263.41 159.546L292.742 176.368V194.653L263.41 177.957L263.41 159.546Z" fill="#3367A3"/>
<path fill-rule="evenodd" clip-rule="evenodd" d="M262.46 157.635L264.276 156.593L295.592 174.656L293.695 175.595L262.46 157.635Z" fill="#DDDFDF"/>
<path fill-rule="evenodd" clip-rule="evenodd" d="M293.688 197.865L295.572 196.907V174.667L293.688 175.585V197.865Z" fill="#ABAEB1"/>
<path fill-rule="evenodd" clip-rule="evenodd" d="M274.903 172.109C274.892 172.202 274.96 172.329 275.055 172.394C275.099 172.423 276.118 173.139 276.388 174.486C276.131 174.66 275.984 175.012 276.007 175.501C276.007 175.504 276.007 175.506 276.007 175.508C276.008 175.51 276.008 175.512 276.008 175.514L278.823 177.038C278.823 177.036 278.823 177.034 278.823 177.032C278.823 177.03 278.824 177.027 278.823 177.025C278.812 176.516 278.634 175.971 278.354 175.504C278.539 174.339 279.547 174.61 279.591 174.623C279.685 174.65 279.747 174.578 279.729 174.461C279.709 174.344 279.618 174.229 279.523 174.202C279.51 174.198 278.345 173.881 278.049 175.076C277.84 174.832 277.604 174.635 277.354 174.508C277.105 174.381 276.874 174.34 276.675 174.372C276.287 172.874 275.111 172.065 275.098 172.056C275.002 171.992 274.916 172.016 274.903 172.109ZM280.327 178.467L280.73 177.13C280.767 177.007 280.699 176.822 280.577 176.715C280.454 176.608 280.326 176.62 280.29 176.741C280.29 176.741 280.019 177.642 279.962 177.835C279.923 177.826 279.859 177.811 279.781 177.794C279.618 177.758 279.394 177.708 279.223 177.669C279.218 177.642 279.213 177.615 279.208 177.588C279.203 177.564 279.199 177.539 279.194 177.515L275.656 175.582C275.65 175.61 275.646 175.64 275.641 175.669C275.64 175.68 275.638 175.69 275.637 175.701C275.563 175.639 275.48 175.57 275.397 175.5C275.186 175.323 274.969 175.141 274.882 175.068C274.81 174.826 274.474 173.705 274.474 173.705C274.429 173.555 274.295 173.416 274.177 173.393C274.058 173.37 274 173.473 274.046 173.622L274.545 175.274L275.596 176.163C275.594 176.265 275.594 176.368 275.6 176.478C275.607 176.612 275.62 176.747 275.638 176.882L274.643 176.799L274.449 178.589C274.436 178.709 274.524 178.885 274.645 178.985C274.766 179.084 274.875 179.066 274.888 178.945C274.888 178.945 275.039 177.579 275.063 177.377C275.097 177.38 275.159 177.385 275.238 177.392C275.378 177.405 275.568 177.423 275.739 177.437C276.038 178.737 276.759 179.999 277.561 180.498C278.363 180.996 279.023 180.543 279.24 179.475C279.517 179.779 279.841 180.138 279.939 180.248C279.977 180.509 280.232 182.28 280.232 182.28C280.253 182.437 280.368 182.605 280.486 182.654C280.604 182.702 280.682 182.613 280.66 182.453L280.333 180.11L279.306 178.981C279.315 178.852 279.319 178.717 279.317 178.576C279.315 178.462 279.307 178.346 279.298 178.23L280.327 178.467Z" fill="#FF3A3A"/>
<path fill-rule="evenodd" clip-rule="evenodd" d="M252.829 149.116L257.908 152.104L245.825 159.303L240.586 156.277L252.829 149.116Z" fill="#DDDFDF"/>
<path fill-rule="evenodd" clip-rule="evenodd" d="M240.596 156.277L240.596 175.1L245.825 178.117V159.295L240.596 156.277Z" fill="#F1F1F1"/>
<path fill-rule="evenodd" clip-rule="evenodd" d="M241.249 159.057V161.198L244.563 163.365V161.225L241.249 159.057Z" fill="#6F6F6F"/>
<path fill-rule="evenodd" clip-rule="evenodd" d="M241.249 163.034V165.175L244.563 167.342V165.201L241.249 163.034Z" fill="#6F6F6F"/>
<path fill-rule="evenodd" clip-rule="evenodd" d="M241.249 167.01V169.151L244.563 171.318V169.178L241.249 167.01Z" fill="#6F6F6F"/>
<path fill-rule="evenodd" clip-rule="evenodd" d="M241.249 170.987V173.128L244.563 175.294V173.154L241.249 170.987Z" fill="#6F6F6F"/>
<path fill-rule="evenodd" clip-rule="evenodd" d="M245.795 159.284L257.904 152.115V170.913L245.795 178.134V159.284Z" fill="#CDCDCD"/>
<path fill-rule="evenodd" clip-rule="evenodd" d="M228.657 183.91V186.145L239.117 192.194V189.796L228.657 183.91Z" fill="#717171"/>
<path fill-rule="evenodd" clip-rule="evenodd" d="M239.117 189.811L248.676 184.65V186.903L239.117 192.194V189.811Z" fill="#E4E4E4"/>
<path fill-rule="evenodd" clip-rule="evenodd" d="M238.624 179.094L248.68 184.65L239.121 189.817L228.657 183.91L238.624 179.094Z" fill="#2B2B2B"/>
<path fill-rule="evenodd" clip-rule="evenodd" d="M237.225 180.228L245.827 185.207L242.169 187.27L233.411 182.151L237.225 180.228Z" fill="#ABAEB1"/>
<path fill-rule="evenodd" clip-rule="evenodd" d="M243.527 176.052L250.227 179.311V179.311C248.081 179.997 246.203 181.338 244.855 183.144L243.082 185.522L236.264 181.544L237.647 179.816C239.141 177.95 241.207 176.628 243.527 176.052V176.052Z" fill="white"/>
<path fill-rule="evenodd" clip-rule="evenodd" d="M383.348 164.076L412.477 180.92L396.748 189.317L388.982 185.288L379.063 187.255L377.35 185.288L384.618 183.301L325.171 148.365L314.858 150.441L313.389 148.365L325.171 145.283L383.348 164.076Z" fill="#D5C5A3"/>
<path opacity="0.748661" fill-rule="evenodd" clip-rule="evenodd" d="M412.482 180.924L394.761 171.156L396.836 159.074L401.201 159.742L412.482 166.267V180.924Z" fill="#E4DAC4"/>
<path fill-rule="evenodd" clip-rule="evenodd" d="M314.628 119.933L317.439 121.732L314.628 123.434L311.813 121.683L314.628 119.933Z" fill="#B4B6B6"/>
<path fill-rule="evenodd" clip-rule="evenodd" d="M311.813 121.685V149.795L314.625 151.535V123.432L311.813 121.685Z" fill="#9A9A9B"/>
<path fill-rule="evenodd" clip-rule="evenodd" d="M314.621 123.421V151.536L317.433 149.843V121.738L314.621 123.421Z" fill="#7A7B7B"/>
<path fill-rule="evenodd" clip-rule="evenodd" d="M377.339 157.412L380.15 159.212L377.339 160.913L374.523 159.162L377.339 157.412Z" fill="#B4B6B6"/>
<path fill-rule="evenodd" clip-rule="evenodd" d="M374.523 159.164V187.274L377.335 189.015V160.911L374.523 159.164Z" fill="#9A9A9B"/>
<path fill-rule="evenodd" clip-rule="evenodd" d="M377.331 160.9V189.015L380.143 187.322V159.217L377.331 160.9Z" fill="#7A7B7B"/>
<path fill-rule="evenodd" clip-rule="evenodd" d="M391.378 149.916L394.189 151.716L391.378 153.417L388.563 151.667L391.378 149.916Z" fill="#B4B6B6"/>
<path fill-rule="evenodd" clip-rule="evenodd" d="M388.563 151.668V179.778L391.375 181.519V153.415L388.563 151.668Z" fill="#9A9A9B"/>
<path fill-rule="evenodd" clip-rule="evenodd" d="M391.371 153.404V181.519L394.183 179.827V151.721L391.371 153.404Z" fill="#7A7B7B"/>
<path fill-rule="evenodd" clip-rule="evenodd" d="M324.802 109.076L401.275 152.159L381.641 163.667L306.197 119.922L324.802 109.076Z" fill="#CC9181"/>
<path fill-rule="evenodd" clip-rule="evenodd" d="M306.197 119.933L381.63 163.645V182.404L306.197 138.659L306.197 119.933Z" fill="#350100"/>
<path fill-rule="evenodd" clip-rule="evenodd" d="M381.629 163.639L401.281 152.159V170.896L381.629 182.412V163.639Z" fill="#99614A"/>
<path fill-rule="evenodd" clip-rule="evenodd" d="M318.789 119.459V121.739L328.996 127.909V125.462L318.789 119.459Z" fill="#717171"/>
<path fill-rule="evenodd" clip-rule="evenodd" d="M328.996 125.478L338.323 120.213V122.511L328.996 127.909V125.478Z" fill="#E4E4E4"/>
<path fill-rule="evenodd" clip-rule="evenodd" d="M330.8 118.498L327.14 105.376L330.8 107.434V118.498Z" fill="#3A92F8"/>
<path fill-rule="evenodd" clip-rule="evenodd" d="M336.418 121.932V111.009L340.428 113.278L336.418 121.932Z" fill="#3A92F8"/>
<path fill-rule="evenodd" clip-rule="evenodd" d="M328.515 114.546L338.327 120.213L329 125.484L318.789 119.459L328.515 114.546Z" fill="#2B2B2B"/>
<path fill-rule="evenodd" clip-rule="evenodd" d="M327.15 115.703L335.543 120.782L331.974 122.886L323.429 117.664L327.15 115.703Z" fill="#ABAEB1"/>
<path fill-rule="evenodd" clip-rule="evenodd" d="M330.8 107.436L331.737 107.436V116.4L330.8 115.861V107.436Z" fill="#1E5AA0"/>
<path fill-rule="evenodd" clip-rule="evenodd" d="M340.428 113.278H341.359L338.184 120.13L337.449 119.706L340.428 113.278Z" fill="#1E5AA0"/>
<path fill-rule="evenodd" clip-rule="evenodd" d="M327.146 105.383H328.087L331.737 107.436H330.796L327.146 105.383Z" fill="#1E5AA0"/>
<path fill-rule="evenodd" clip-rule="evenodd" d="M336.424 111.026L337.346 111.007L341.359 113.278H340.428L336.424 111.026Z" fill="#1E5AA0"/>
<path d="M132.897 203.074V194.74L143.24 188.945V197.28L132.897 203.074Z" fill="white" stroke="#444444" stroke-width="2"/>
<path fill-rule="evenodd" clip-rule="evenodd" d="M136.157 197.255C136.419 197.255 137.128 196.891 137.128 196.635C137.128 196.379 136.916 196.171 136.655 196.171C136.393 196.171 135.684 196.535 135.684 196.791C135.684 197.048 135.896 197.255 136.157 197.255Z" fill="#D8D8D8" stroke="#272727"/>
<path fill-rule="evenodd" clip-rule="evenodd" d="M139.795 195.251C140.056 195.251 140.766 194.887 140.766 194.631C140.766 194.374 140.554 194.167 140.292 194.167C140.031 194.167 139.322 194.531 139.322 194.787C139.322 195.044 139.533 195.251 139.795 195.251Z" fill="#D8D8D8" stroke="#272727"/>
<path d="M172.661 147.386V115.046L211.751 92.5255V124.865L172.661 147.386Z" fill="#3367A3" stroke="black" stroke-width="2"/>
<path fill-rule="evenodd" clip-rule="evenodd" d="M67.0578 247.392L96.8861 230.027L124.502 246.258L94.5251 263.55L67.0578 247.392Z" fill="#D5C5A3"/>
<path fill-rule="evenodd" clip-rule="evenodd" d="M85.1396 215.031L87.9697 216.831L85.1396 218.532L82.3054 216.781L85.1396 215.031Z" fill="#B4B6B6"/>
<path fill-rule="evenodd" clip-rule="evenodd" d="M82.3054 216.783V244.903L85.1365 246.644V218.531L82.3054 216.783Z" fill="#9A9A9B"/>
<path fill-rule="evenodd" clip-rule="evenodd" d="M85.1324 218.52V246.644L87.9635 244.951V216.836L85.1324 218.52Z" fill="#7A7B7B"/>
<path fill-rule="evenodd" clip-rule="evenodd" d="M97.3899 221.592L100.22 223.392L97.3899 225.094L94.5557 223.343L97.3899 221.592Z" fill="#B4B6B6"/>
<path fill-rule="evenodd" clip-rule="evenodd" d="M94.5557 223.344V251.464L97.3868 253.205V225.092L94.5557 223.344Z" fill="#9A9A9B"/>
<path fill-rule="evenodd" clip-rule="evenodd" d="M97.3827 225.081V253.205L100.214 251.512V223.397L97.3827 225.081Z" fill="#7A7B7B"/>
<path fill-rule="evenodd" clip-rule="evenodd" d="M115.294 213.156L118.124 214.956L115.294 216.658L112.46 214.907L115.294 213.156Z" fill="#B4B6B6"/>
<path fill-rule="evenodd" clip-rule="evenodd" d="M112.46 214.908V243.029L115.291 244.769V216.656L112.46 214.908Z" fill="#9A9A9B"/>
<path fill-rule="evenodd" clip-rule="evenodd" d="M115.287 216.645V244.77L118.118 243.077V214.962L115.287 216.645Z" fill="#7A7B7B"/>
<path fill-rule="evenodd" clip-rule="evenodd" d="M79.4784 211.5L100.372 222.612V247.836L79.4784 236.774V211.5Z" fill="#350100"/>
<path fill-rule="evenodd" clip-rule="evenodd" d="M79.4784 211.497L105.605 198.159L126.463 209.263L100.379 222.616L79.4784 211.497Z" fill="#CC9181"/>
<path fill-rule="evenodd" clip-rule="evenodd" d="M100.383 247.835V222.599L126.476 209.265V234.49L100.383 247.835Z" fill="#99614A"/>
<path fill-rule="evenodd" clip-rule="evenodd" d="M96.4235 210.885V198.236L90.7607 201.289L96.4235 210.885Z" fill="#3A92F8"/>
<path fill-rule="evenodd" clip-rule="evenodd" d="M89.1073 200.424L89.0917 200.415L89.1001 200.411L89.0993 200.409L89.1012 200.41L94.758 197.419L96.43 198.232L90.7716 201.291L94.758 208.032L94.3999 208.979L93.5694 208.288L89.1073 200.424Z" fill="#1E5AA0"/>
<path fill-rule="evenodd" clip-rule="evenodd" d="M98.5305 207.404V196.847L103.06 194.463L99.4072 209.996L98.5305 207.404Z" fill="#3A92F8"/>
<path fill-rule="evenodd" clip-rule="evenodd" d="M97.0503 196.027V207.407L98.5378 206.61V205.808V196.833L97.0503 196.027Z" fill="#1E5AA0"/>
<path fill-rule="evenodd" clip-rule="evenodd" d="M98.5495 196.843L103.06 194.465L101.507 193.711L97.0439 196.032L98.5495 196.843Z" fill="#1E5AA0"/>
<path fill-rule="evenodd" clip-rule="evenodd" d="M91.9286 209.112L102.358 203.894L112.212 209.171L101.942 214.479L91.9286 209.112Z" fill="#2B2B2B"/>
<path fill-rule="evenodd" clip-rule="evenodd" d="M94.9581 209.603L103.242 205.351L107.153 207.481L98.9775 211.792L94.9581 209.603Z" fill="#ABAEB1"/>
<path fill-rule="evenodd" clip-rule="evenodd" d="M91.9273 209.11V211.94L101.945 217.307V214.475L91.9273 209.11Z" fill="#717171"/>
<path fill-rule="evenodd" clip-rule="evenodd" d="M101.948 214.474V217.308L112.214 212.002V209.172L101.948 214.474Z" fill="#E4E4E4"/>
<path fill-rule="evenodd" clip-rule="evenodd" d="M94.3853 289.094L220.22 215.97L285.466 253.682L159.631 326.805L94.3853 289.094Z" fill="#FEB415"/>
<path fill-rule="evenodd" clip-rule="evenodd" d="M99.7541 285.965L214.831 219.112L280.143 256.867L164.999 323.676L99.7541 285.965Z" fill="#F3A100"/>
<path d="M275.049 209.426V210.088L293.937 221.024L306.86 213.402V212.739L293.937 220.361L275.049 209.426Z" fill="#ABAEB1"/>
<path d="M306.86 213.402L293.937 221.024L275.049 210.088L287.972 202.798L306.86 213.402Z" fill="#8D8E90"/>
<path d="M306.86 212.739L293.937 220.361L275.049 209.426L287.972 202.467L306.86 212.739Z" fill="#B4B6B6"/>
<path d="M291.244 214.161L287.895 216.136L283.001 213.303L286.35 211.414L291.244 214.161Z" fill="#DCDCDC"/>
<path d="M304.209 213.402L298.168 216.895L280.605 207.199L286.978 203.792L304.209 213.402Z" fill="#DCDCDC"/>
<path fill-rule="evenodd" clip-rule="evenodd" d="M288.114 189.049L306.856 199.829V213.184L288.114 202.487L288.114 189.049Z" fill="#ABAEB1"/>
<path fill-rule="evenodd" clip-rule="evenodd" d="M286.978 189.614L305.72 200.394V213.749L286.978 203.053L286.978 189.614Z" fill="black"/>
<path fill-rule="evenodd" clip-rule="evenodd" d="M287.55 190.764L305.149 200.858V211.829L287.55 201.811L287.55 190.764Z" fill="#3367A3"/>
<path fill-rule="evenodd" clip-rule="evenodd" d="M286.98 189.618L288.07 188.993L306.859 199.83L305.721 200.394L286.98 189.618Z" fill="#DDDFDF"/>
<path fill-rule="evenodd" clip-rule="evenodd" d="M305.717 213.756L306.847 213.181V199.837L305.717 200.388V213.756Z" fill="#ABAEB1"/>
<path fill-rule="evenodd" clip-rule="evenodd" d="M343.471 122.313L356.566 130.228L352.589 132.419L339.334 124.466L343.471 122.313Z" fill="#9F9F9F"/>
<path fill-rule="evenodd" clip-rule="evenodd" d="M339.334 124.396L339.344 136.661L352.589 144.477V132.293L339.334 124.396Z" fill="#2F2C2C"/>
<path fill-rule="evenodd" clip-rule="evenodd" d="M339.334 136.078L339.344 136.661L352.589 144.477V143.976L339.334 136.078Z" fill="white"/>
<path fill-rule="evenodd" clip-rule="evenodd" d="M352.589 132.429L355.074 130.958L356.566 130.157V142.158L352.589 144.482V132.429Z" fill="#616161"/>
<path fill-rule="evenodd" clip-rule="evenodd" d="M361.365 124.964L374.46 132.879L370.483 135.07L357.228 127.117L361.365 124.964Z" fill="#9F9F9F"/>
<path fill-rule="evenodd" clip-rule="evenodd" d="M357.228 127.046L357.238 139.312L370.483 147.128V134.944L357.228 127.046Z" fill="#2F2C2C"/>
<path fill-rule="evenodd" clip-rule="evenodd" d="M357.228 138.75L357.238 139.312L370.483 147.128V146.648L357.228 138.75Z" fill="white"/>
<path fill-rule="evenodd" clip-rule="evenodd" d="M370.483 135.079L372.968 133.608L374.459 132.807V144.809L370.483 147.132V135.079Z" fill="#616161"/>
<path fill-rule="evenodd" clip-rule="evenodd" d="M371.969 138.219L385.063 146.134L381.087 148.325L367.832 140.372L371.969 138.219Z" fill="#9F9F9F"/>
<path fill-rule="evenodd" clip-rule="evenodd" d="M367.832 140.301L367.842 152.567L381.087 160.383V148.199L367.832 140.301Z" fill="#2F2C2C"/>
<path fill-rule="evenodd" clip-rule="evenodd" d="M367.832 152.224L367.842 152.743L381.087 160.559V160.122L367.832 152.224Z" fill="#EEEEEE"/>
<path fill-rule="evenodd" clip-rule="evenodd" d="M381.087 148.334L383.572 146.863L385.063 146.062V158.063L381.087 160.387V148.334Z" fill="#616161"/>
<path d="M373.832 148.007C374.797 148.589 375.579 150.155 375.579 151.505C375.579 152.854 374.797 153.475 373.832 152.892C373.403 152.633 373.01 152.179 372.706 151.637C373.182 152.541 373.888 153.36 374.677 153.836C375.163 154.13 375.617 154.256 376.005 154.233C376.683 154.036 377.11 153.412 377.11 152.43C377.11 151.448 376.683 150.308 376.005 149.292C375.617 148.8 375.163 148.377 374.677 148.084C373.888 147.607 373.181 147.572 372.706 147.902" fill="#D32F2F"/>
<path d="M370.483 148.426C370.483 150.203 371.882 152.499 373.639 153.643C373.691 153.677 373.744 153.71 373.797 153.742C374.645 154.254 375.419 154.403 376.005 154.232C375.616 154.255 375.162 154.129 374.677 153.836C373.888 153.359 373.181 152.541 372.706 151.636C372.339 150.983 372.102 150.2 372.086 149.473C372.086 149.471 372.086 149.319 372.086 149.317C372.102 148.609 372.34 148.113 372.706 147.902C373.181 147.572 373.888 147.607 374.677 148.084C375.162 148.377 375.616 148.8 376.005 149.292C375.422 148.418 374.653 147.635 373.809 147.122C371.967 146.009 370.483 146.596 370.483 148.426Z" fill="#F44336"/>
<path d="M364.802 134.344L360.542 133.542V138.039L361.962 138.385V134.598L364.802 135.764V140.992L360.542 138.039L364.802 141.918L367.169 142.574V136.42L364.802 134.344Z" fill="#FF5722"/>
<path d="M345.787 131.44L349.275 132.786V135.89L345.787 134.021V131.44Z" fill="#90C300"/>
<path d="M342.648 130.211L345.322 131.249V133.806L342.648 132.373V130.211Z" fill="#F8672C"/>
<path d="M345.787 137.021L349.275 139.413V136.39L345.787 134.521V137.021Z" fill="#FFC400"/>
<path d="M342.648 134.885L345.322 136.713V134.272L342.648 132.839V134.885Z" fill="#00B4F2"/>
<path d="M181.382 195.126L181.384 195.13C181.48 195.284 181.435 195.486 181.282 195.584L164.65 206.264C164.498 206.362 164.295 206.318 164.198 206.166L164.196 206.162L164.193 206.159C164.097 206.005 164.143 205.802 164.295 205.704L180.927 195.024C181.08 194.927 181.282 194.971 181.38 195.123L181.382 195.126Z" fill="#272727"/>
<rect x="104.725" y="214.728" width="0.662743" height="46.3917" rx="0.331371" fill="#272727"/>
<path fill-rule="evenodd" clip-rule="evenodd" d="M144.818 218.707C144.561 218.848 144.557 219.216 144.811 219.362L161.038 228.724L105.551 261.277C105.394 261.369 105.341 261.57 105.432 261.728C105.524 261.887 105.728 261.941 105.886 261.848L161.648 229.135C161.801 229.046 161.855 228.852 161.773 228.696C161.807 228.569 161.76 228.424 161.63 228.347L145.188 218.713C145.074 218.646 144.934 218.644 144.818 218.707Z" fill="#272727"/>
<path d="M105.056 215.39C105.605 215.39 106.05 214.945 106.05 214.396C106.05 213.847 105.605 213.402 105.056 213.402C104.507 213.402 104.062 213.847 104.062 214.396C104.062 214.945 104.507 215.39 105.056 215.39Z" fill="#272727"/>
<rect x="320.778" y="122.607" width="0.66272" height="39.7644" rx="0.33136" fill="#272727"/>
<path d="M136.176 189.121C140.568 186.972 144.294 181.669 144.498 177.277C144.701 172.885 141.306 171.066 136.914 173.215C132.521 175.364 128.796 180.667 128.592 185.059C128.388 189.451 131.784 191.27 136.176 189.121Z" fill="#F3A100"/>
<path d="M136.236 187.645C139.896 185.854 143.001 181.435 143.171 177.775C143.341 174.115 140.511 172.599 136.851 174.39C133.191 176.181 130.086 180.6 129.916 184.26C129.746 187.92 132.576 189.436 136.236 187.645Z" fill="white"/>
<path d="M138.763 179.602L137.061 180.435L138.765 176.951L136.777 177.924L134.724 182.903L136.19 182.186L134.548 186.699L138.763 179.602Z" fill="#F3A100"/>
</g>
<defs>
<filter id="filter0_d" x="0" y="0" width="454" height="378.448" filterUnits="userSpaceOnUse" color-interpolation-filters="sRGB">
<feFlood flood-opacity="0" result="BackgroundImageFix"/>
<feColorMatrix in="SourceAlpha" type="matrix" values="0 0 0 0 0 0 0 0 0 0 0 0 0 0 0 0 0 0 127 0"/>
<feOffset dy="2"/>
<feGaussianBlur stdDeviation="1"/>
<feColorMatrix type="matrix" values="0 0 0 0 0.695366 0 0 0 0 0.695366 0 0 0 0 0.695366 0 0 0 0.422073 0"/>
<feBlend mode="normal" in2="BackgroundImageFix" result="effect1_dropShadow"/>
<feBlend mode="normal" in="SourceGraphic" in2="effect1_dropShadow" result="shape"/>
</filter>
</defs>
</svg>
