<svg xmlns="http://www.w3.org/2000/svg" width="1440" height="1440" viewBox="0 0 1440 1440">
  <path fill="#EEE8CD" d="M1226 511.52l130.13-88.82-185.6-54.33C1015.54 96 699.24 238.04 593.5 497.1 465.93 809.32 100.6 923.22 100.6 923.22c260.03 309.25 494.53 365.1 650.94 352.77 156.5-12.4 578.85-135.43 490.93-684.47-4.57-28.55-10.12-55.12-16.47-80z"/>
  <path d="M1170.54 368.38c22.15 38.93 40.98 86.4 55.46 143.15l130.13-88.82-185.6-54.32zM963.66 713.14s-434.14-89.5-483.9 152.05c-49.78 241.52 351.04 381.7 483.9-152.06zM1047.2 361.66c2.9 25.9-10.44 48.72-29.87 50.98-19.5 2.2-37.68-17.08-40.57-42.94-2.96-25.9 10.38-48.72 29.88-50.98 19.5-2.1 37.6 17.04 40.57 42.94z"/>
</svg>
