<?xml version="1.0" encoding="utf-8"?>
<!-- Generator: Adobe Illustrator 15.0.0, SVG Export Plug-In . SVG Version: 6.00 Build 0)  -->
<!DOCTYPE svg PUBLIC "-//W3C//DTD SVG 1.1//EN" "http://www.w3.org/Graphics/SVG/1.1/DTD/svg11.dtd">
<svg version="1.1" id="Слой_1" xmlns="http://www.w3.org/2000/svg" xmlns:xlink="http://www.w3.org/1999/xlink" x="0px" y="0px"
	 width="1058.568px" height="598.669px" viewBox="0 0 1058.568 598.669" enable-background="new 0 0 1058.568 598.669"
	 xml:space="preserve">
<g>
	<g>
		<g>
			<path fill="#817E7D" d="M73.614,4.063l-0.767-0.643C74.706,1.203,75.786,0.012,75.796,0l0.74,0.672
				C76.526,0.684,75.458,1.863,73.614,4.063z"/>
		</g>
		<g>
			<path fill="#817E7D" d="M497.68,581.378l-0.989-0.146c0.433-2.927,1.017-5.903,1.733-8.844l0.972,0.237
				C498.686,575.536,498.108,578.481,497.68,581.378z M502.872,561.249l-0.938-0.345c1.016-2.766,2.17-5.567,3.432-8.324
				l0.909,0.416C505.023,555.73,503.879,558.506,502.872,561.249z M511.734,542.415l-0.867-0.499
				c1.465-2.548,3.056-5.123,4.729-7.654l0.834,0.552C514.768,537.328,513.188,539.885,511.734,542.415z M523.377,525.132
				l-0.791-0.612c1.798-2.321,3.71-4.665,5.685-6.966l0.759,0.651C527.066,520.493,525.164,522.824,523.377,525.132z
				 M537.133,509.507l-0.672-0.74c2.169-1.97,4.555-3.849,7.089-5.586l0.565,0.825C541.618,505.717,539.269,507.568,537.133,509.507
				z M936.53,504.15c-2.75,0-5.516-0.017-8.296-0.051l0.012-1c2.776,0.033,5.538,0.051,8.285,0.051l0.681,0l0.001,1L936.53,504.15z
				 M949.179,504.022l-0.021-1c3.023-0.063,6.037-0.149,8.956-0.258l0.037,1C955.227,503.872,952.208,503.959,949.179,504.022z
				 M916.265,503.859c-2.978-0.083-5.968-0.182-8.973-0.296l0.038-0.999c3,0.114,5.988,0.213,8.962,0.296L916.265,503.859z
				 M970.104,503.172l-0.062-0.998c3.017-0.188,6.023-0.406,8.936-0.648l0.083,0.997
				C976.142,502.766,973.128,502.984,970.104,503.172z M895.335,503.031c-2.977-0.15-5.965-0.314-8.963-0.49l0.059-0.998
				c2.995,0.176,5.98,0.339,8.955,0.489L895.335,503.031z M874.428,501.781c-2.97-0.203-5.947-0.416-8.93-0.639l0.074-0.998
				c2.981,0.223,5.957,0.436,8.924,0.639L874.428,501.781z M990.974,501.344l-0.114-0.993c3.003-0.346,5.992-0.731,8.881-1.143
				l0.142,0.99C996.983,500.612,993.986,500.998,990.974,501.344z M853.584,500.208c-2.973-0.244-5.95-0.495-8.93-0.753l0.086-0.996
				c2.979,0.258,5.954,0.509,8.926,0.753L853.584,500.208z M832.744,498.392c-2.976-0.273-5.954-0.552-8.932-0.835l0.095-0.996
				c2.978,0.283,5.954,0.562,8.929,0.835L832.744,498.392z M554.398,498.08l-0.436-0.9c2.603-1.261,5.389-2.454,8.282-3.547
				l0.354,0.936C559.733,495.651,556.975,496.832,554.398,498.08z M1011.702,498.02l-0.288-0.958
				c2.792-0.839,5.536-1.987,8.155-3.411l0.478,0.878C1017.367,495.987,1014.559,497.161,1011.702,498.02z M811.901,496.404
				c-2.98-0.293-5.959-0.589-8.937-0.886l0.1-0.995c2.976,0.298,5.955,0.594,8.935,0.886L811.901,496.404z M791.05,494.317
				l-8.944-0.909l0.102-0.995l8.943,0.909L791.05,494.317z M770.184,492.198c-2.983-0.302-5.958-0.602-8.927-0.898l0.1-0.995
				c2.968,0.297,5.945,0.596,8.928,0.898L770.184,492.198z M573.93,490.917l-0.263-0.965c2.79-0.761,5.731-1.472,8.745-2.113
				l0.208,0.978C579.625,489.454,576.701,490.161,573.93,490.917z M749.353,490.124c-2.987-0.291-5.964-0.577-8.93-0.858
				l0.094-0.996c2.966,0.281,5.944,0.567,8.932,0.858L749.353,490.124z M728.512,488.167c-2.992-0.269-5.971-0.53-8.936-0.782
				l0.085-0.996c2.966,0.253,5.947,0.514,8.94,0.782L728.512,488.167z M1029.831,487.511l-0.673-0.739
				c2.118-1.928,4.169-4.102,6.098-6.461l0.774,0.633C1034.071,483.34,1031.985,485.55,1029.831,487.511z M594.358,486.706
				l-0.148-0.989c2.869-0.43,5.868-0.82,8.913-1.161l0.111,0.994C600.201,485.889,597.215,486.278,594.358,486.706z
				 M707.656,486.414c-2.999-0.233-5.981-0.454-8.944-0.664l0.07-0.998c2.966,0.21,5.95,0.432,8.951,0.665L707.656,486.414z
				 M686.779,484.967c-3.007-0.18-5.993-0.346-8.954-0.496l0.051-0.999c2.964,0.15,5.953,0.316,8.963,0.497L686.779,484.967z
				 M615.124,484.475l-0.07-0.998c2.895-0.204,5.912-0.377,8.968-0.514l0.045,0.999
				C621.019,484.099,618.011,484.272,615.124,484.475z M665.88,483.954c-3.016-0.107-6.004-0.195-8.962-0.262l0.022-1
				c2.962,0.067,5.955,0.155,8.975,0.262L665.88,483.954z M636.007,483.604l-0.017-1c2.62-0.042,5.269-0.063,7.946-0.063
				l1.033,0.001l-0.002,1l-1.031-0.001C641.265,483.541,638.621,483.561,636.007,483.604z M1042.848,471.039l-0.864-0.503
				c1.451-2.493,2.829-5.158,4.096-7.921l0.909,0.417C1045.708,465.823,1044.314,468.518,1042.848,471.039z M1051.379,451.853
				l-0.949-0.316c0.921-2.765,1.767-5.649,2.516-8.572l0.969,0.248C1053.16,446.159,1052.307,449.066,1051.379,451.853z
				 M1056.391,431.47l-0.986-0.166c0.487-2.9,0.897-5.88,1.22-8.857l0.994,0.108C1057.293,425.552,1056.88,428.551,1056.391,431.47z
				 M1058.468,410.589l-0.999-0.034c0.065-1.902,0.099-3.834,0.099-5.744c0-1.064-0.01-2.131-0.031-3.199l1-0.019
				c0.021,1.075,0.031,2.148,0.031,3.219C1058.568,406.732,1058.535,408.676,1058.468,410.589z M1056.89,389.701
				c-0.267-2.969-0.616-5.958-1.037-8.887l0.99-0.143c0.424,2.946,0.775,5.954,1.043,8.94L1056.89,389.701z M1053.725,369.078
				c-0.641-2.918-1.369-5.837-2.164-8.676l0.963-0.27c0.8,2.856,1.533,5.794,2.178,8.731L1053.725,369.078z M1047.893,349.064
				c-1.038-2.812-2.167-5.598-3.357-8.28l0.914-0.405c1.198,2.701,2.336,5.507,3.382,8.339L1047.893,349.064z M212.691,348.151
				l-0.021-1c2.962-0.063,5.97-0.184,8.941-0.358l0.059,0.998C218.687,347.966,215.666,348.087,212.691,348.151z M200.71,348.109
				c-2.98-0.085-6-0.228-8.977-0.425l0.066-0.998c2.964,0.196,5.971,0.338,8.939,0.423L200.71,348.109z M233.61,346.796
				l-0.107-0.994c2.944-0.318,5.931-0.696,8.878-1.122l0.144,0.99C239.565,346.098,236.566,346.477,233.61,346.796z
				 M179.804,346.593c-2.961-0.346-5.957-0.755-8.904-1.214l0.153-0.988c2.935,0.457,5.918,0.863,8.867,1.208L179.804,346.593z
				 M754.335,344.868c-0.555,0-1.111-0.009-1.667-0.026l0.031-1c2.897,0.091,5.844-0.062,8.848-0.453l0.129,0.992
				C759.195,344.704,756.725,344.868,754.335,344.868z M740.709,344.175c-2.93-0.327-5.919-0.784-8.884-1.358l0.189-0.982
				c2.94,0.569,5.902,1.022,8.806,1.346L740.709,344.175z M254.337,343.668l-0.19-0.982c2.909-0.564,5.854-1.19,8.754-1.859
				l0.225,0.975C260.214,342.474,257.257,343.102,254.337,343.668z M159.112,343.237c-2.919-0.607-5.867-1.279-8.762-1.998
				l0.241-0.971c2.882,0.716,5.817,1.385,8.724,1.99L159.112,343.237z M773.404,341.783l-0.293-0.956
				c2.68-0.821,5.504-1.833,8.393-3.01l0.377,0.926C778.964,339.931,776.112,340.954,773.404,341.783z M720.183,339.966
				c-2.793-0.824-5.666-1.771-8.536-2.815l0.342-0.94c2.851,1.037,5.703,1.978,8.477,2.796L720.183,339.966z M274.706,338.677
				l-0.308-0.951c2.863-0.927,5.716-1.885,8.481-2.847l0.328,0.944C280.436,336.788,277.575,337.748,274.706,338.677z
				 M138.798,338.058c-2.855-0.865-5.732-1.797-8.55-2.77l0.326-0.945c2.806,0.969,5.67,1.897,8.514,2.759L138.798,338.058z
				 M792.781,333.737l-0.451-0.893c2.497-1.261,5.083-2.636,7.906-4.201l0.485,0.875
				C797.886,331.089,795.289,332.469,792.781,333.737z M700.541,332.655c-2.635-1.169-5.371-2.455-8.133-3.821l0.443-0.896
				c2.75,1.36,5.473,2.639,8.096,3.803L700.541,332.655z M294.436,331.723l-0.358-0.934c2.802-1.074,5.598-2.187,8.308-3.308
				l0.382,0.924C300.049,329.53,297.246,330.646,294.436,331.723z M119.026,331.088c-2.767-1.117-5.549-2.303-8.269-3.525
				l0.41-0.912c2.708,1.217,5.478,2.398,8.232,3.51L119.026,331.088z M1039.22,330.131c-1.462-2.617-3.021-5.184-4.635-7.63
				l0.835-0.551c1.627,2.466,3.2,5.055,4.673,7.693L1039.22,330.131z M313.727,323.634l-0.417-0.909
				c2.719-1.246,5.433-2.54,8.067-3.846l0.444,0.896C319.178,321.085,316.455,322.384,313.727,323.634z M811.097,323.537l-0.51-0.86
				c2.535-1.504,5.097-3.048,7.69-4.618l0.518,0.855C816.199,320.486,813.634,322.032,811.097,323.537z M681.793,323.283
				c-2.518-1.383-5.075-2.829-7.818-4.42l0.502-0.865c2.736,1.588,5.287,3.03,7.797,4.409L681.793,323.283z M99.957,322.368
				c-2.655-1.363-5.318-2.797-7.915-4.261l0.491-0.871c2.585,1.458,5.236,2.886,7.88,4.243L99.957,322.368z M332.415,314.237
				l-0.482-0.876c2.595-1.429,5.204-2.922,7.754-4.438l0.511,0.86C337.638,311.304,335.02,312.803,332.415,314.237z
				 M1027.524,312.928c-1.9-2.306-3.904-4.54-5.958-6.642l0.716-0.699c2.073,2.122,4.096,4.378,6.013,6.705L1027.524,312.928z
				 M663.691,312.734c-2.539-1.547-5.085-3.119-7.642-4.709l0.528-0.849c2.554,1.588,5.098,3.159,7.634,4.704L663.691,312.734z
				 M829.027,312.717l-0.516-0.856c2.538-1.529,5.108-3.066,7.712-4.597l0.507,0.862
				C834.129,309.655,831.563,311.19,829.027,312.717z M81.763,311.943c-2.526-1.608-5.045-3.283-7.485-4.979l0.57-0.821
				c2.43,1.688,4.937,3.355,7.452,4.956L81.763,311.943z M350.338,303.458l-0.547-0.837c2.436-1.59,4.86-3.223,7.412-4.991
				l0.569,0.822C355.213,300.225,352.781,301.862,350.338,303.458z M847.101,302.185l-0.485-0.875
				c2.71-1.505,5.371-2.939,7.908-4.263l0.463,0.886C852.457,299.254,849.804,300.684,847.101,302.185z M645.906,301.68
				c-2.52-1.58-5.054-3.168-7.605-4.757l0.528-0.849c2.552,1.59,5.087,3.178,7.608,4.759L645.906,301.68z M64.624,299.858
				c-2.36-1.841-4.706-3.751-6.972-5.678l0.648-0.762c2.255,1.918,4.59,3.819,6.939,5.651L64.624,299.858z M1012.772,298.285
				c-2.312-1.864-4.73-3.637-7.189-5.271l0.554-0.833c2.484,1.651,4.928,3.443,7.263,5.325L1012.772,298.285z M865.682,292.631
				l-0.424-0.906c2.763-1.294,5.525-2.524,8.21-3.656l0.389,0.921C871.184,290.118,868.433,291.343,865.682,292.631z
				 M367.496,291.51l-0.59-0.807c2.18-1.593,4.307-3.166,6.4-4.714l0.802-0.593l0.595,0.804l-0.802,0.593
				C371.806,288.343,369.678,289.917,367.496,291.51z M628.121,290.652c-2.543-1.545-5.106-3.082-7.691-4.605l0.508-0.862
				c2.589,1.526,5.155,3.065,7.703,4.613L628.121,290.652z M995.3,287.059c-2.636-1.317-5.377-2.533-8.147-3.615l0.364-0.932
				c2.797,1.093,5.566,2.321,8.23,3.652L995.3,287.059z M48.75,286.151c-2.171-2.077-4.309-4.217-6.356-6.362l0.724-0.69
				c2.036,2.134,4.164,4.263,6.323,6.33L48.75,286.151z M884.974,284.676l-0.333-0.943c2.849-1.008,5.724-1.946,8.545-2.79
				l0.286,0.958C890.667,282.74,887.808,283.673,884.974,284.676z M610.066,280.1c-2.667-1.485-5.315-2.922-7.875-4.271l0.467-0.885
				c2.565,1.353,5.221,2.793,7.894,4.282L610.066,280.1z M975.848,279.779c-0.377-0.099-0.756-0.196-1.136-0.291
				c-2.522-0.584-5.081-1.117-7.596-1.582l0.182-0.983c2.53,0.468,5.103,1.004,7.648,1.593c0.392,0.098,0.774,0.196,1.155,0.295
				L975.848,279.779z M384.334,279.167l-0.581-0.814c2.678-1.911,5.092-3.578,7.381-5.099l0.554,0.833
				C389.408,275.601,387.002,277.263,384.334,279.167z M904.999,278.894l-0.217-0.976c2.929-0.652,5.898-1.225,8.825-1.704
				l0.162,0.987C910.86,277.676,907.91,278.246,904.999,278.894z M955.325,276.159c-2.963-0.329-5.96-0.576-8.909-0.734l0.054-0.999
				c2.968,0.159,5.984,0.407,8.966,0.738L955.325,276.159z M925.584,275.737l-0.084-0.997c2.971-0.25,5.992-0.414,8.978-0.488
				l0.024,1C931.536,275.325,928.536,275.489,925.584,275.737z M34.392,270.859c-1.935-2.304-3.823-4.669-5.612-7.029l0.797-0.604
				c1.779,2.347,3.656,4.698,5.581,6.99L34.392,270.859z M591.534,270.448c-2.722-1.311-5.455-2.576-8.124-3.76l0.405-0.914
				c2.679,1.188,5.421,2.458,8.152,3.773L591.534,270.448z M401.801,267.834l-0.494-0.87c2.635-1.498,5.305-2.905,7.935-4.182
				l0.437,0.899C407.068,264.95,404.417,266.347,401.801,267.834z M572.397,262.102c-2.798-1.088-5.624-2.124-8.397-3.082
				l0.326-0.945c2.786,0.961,5.624,2.002,8.434,3.095L572.397,262.102z M420.582,258.991l-0.353-0.936
				c2.75-1.037,5.607-2.008,8.492-2.885l0.291,0.957C426.148,256.999,423.312,257.962,420.582,258.991z M552.629,255.44
				c-2.869-0.816-5.778-1.577-8.649-2.26l0.231-0.973c2.885,0.687,5.81,1.451,8.691,2.271L552.629,255.44z M21.876,254.023
				c-1.646-2.525-3.227-5.107-4.699-7.672l0.867-0.498c1.463,2.549,3.034,5.114,4.67,7.624L21.876,254.023z M440.503,253.125
				l-0.216-0.977c2.834-0.628,5.795-1.207,8.8-1.719l0.168,0.986C446.267,251.924,443.322,252.5,440.503,253.125z M532.312,250.768
				c-2.924-0.513-5.896-0.964-8.835-1.342l0.128-0.992c2.954,0.38,5.942,0.833,8.88,1.349L532.312,250.768z M461.035,249.748
				l-0.114-0.994c2.878-0.33,5.88-0.621,8.924-0.864l0.08,0.997C466.893,249.13,463.901,249.42,461.035,249.748z M511.622,248.271
				c-2.954-0.196-5.958-0.328-8.927-0.39l0.021-1c2.984,0.063,6.003,0.195,8.972,0.393L511.622,248.271z M481.816,248.17
				l-0.042-0.999c2.896-0.122,5.913-0.211,8.967-0.266l0.019,1C487.713,247.959,484.704,248.049,481.816,248.17z M11.629,235.716
				c-1.285-2.733-2.484-5.514-3.562-8.264l0.931-0.365c1.07,2.73,2.26,5.49,3.535,8.204L11.629,235.716z M4.22,216.087
				c-0.829-2.908-1.547-5.851-2.132-8.746l0.98-0.198c0.581,2.87,1.292,5.787,2.114,8.67L4.22,216.087z M0.369,195.464
				C0.124,192.635,0,189.788,0,187.003l0.001-0.534l1,0.003L1,187.003c0,2.757,0.123,5.575,0.365,8.375L0.369,195.464z
				 M1.363,174.548l-0.998-0.058c0.172-2.964,0.408-5.979,0.702-8.961l0.995,0.098C1.77,168.596,1.535,171.597,1.363,174.548z
				 M3.54,153.787l-0.989-0.149c0.443-2.934,0.95-5.915,1.507-8.861l0.982,0.186C4.486,147.897,3.981,150.866,3.54,153.787z
				 M7.54,133.292l-0.973-0.232c0.689-2.886,1.442-5.815,2.238-8.705l0.964,0.265C8.977,127.499,8.227,130.417,7.54,133.292z
				 M13.188,113.18l-0.952-0.307c0.908-2.817,1.881-5.68,2.892-8.509l0.942,0.336C15.063,107.52,14.093,110.373,13.188,113.18z
				 M20.312,93.536l-0.927-0.374c1.109-2.755,2.279-5.543,3.476-8.288l0.917,0.4C22.583,88.01,21.417,90.79,20.312,93.536z
				 M28.754,74.416l-0.901-0.433c1.283-2.671,2.629-5.378,4-8.048l0.89,0.457C31.375,69.053,30.033,71.753,28.754,74.416z
				 M38.382,55.858l-0.873-0.487c1.447-2.596,2.953-5.218,4.475-7.794l0.861,0.509C41.326,50.654,39.825,53.269,38.382,55.858z
				 M49.092,37.899l-0.844-0.537c1.602-2.517,3.256-5.049,4.918-7.524l0.83,0.558C52.34,32.865,50.689,35.389,49.092,37.899z
				 M60.826,20.587l-0.811-0.585c1.772-2.456,3.576-4.884,5.36-7.219l0.795,0.607C64.392,15.718,62.594,18.139,60.826,20.587z"/>
		</g>
		<g>
			<path fill="#817E7D" d="M496.667,598.669h-1l-0.004-1.141c-0.005-0.961-0.011-2.084,0.006-3.362l1,0.013
				c-0.017,1.27-0.011,2.388-0.006,3.343L496.667,598.669z"/>
		</g>
	</g>
	<polygon fill="#817E7D" points="42.021,287.482 56.333,293.003 50.521,278.857 49.146,285.982 	"/>
	<polygon fill="#817E7D" points="491.41,577.236 496.727,591.625 503.5,577.914 497.245,581.591 	"/>
	<polygon fill="#817E7D" points="218.541,353.414 232.033,346.115 217.501,341.349 222.027,347.021 	"/>
	<polygon fill="#817E7D" points="566.598,265.804 581.938,265.75 571.386,254.68 572.692,261.818 	"/>
	<polygon fill="#817E7D" points="817.933,325.73 827.57,313.796 812.324,314.997 818.687,318.488 	"/>
</g>
</svg>
